<?xml version="1.0" encoding="UTF-8" standalone="no"?>
<!-- Generated by graphviz version 2.26.3 (20100126.1600)
 -->

<!-- Title: _anonymous_0 Pages: 1 -->

<svg
   xmlns:dc="http://purl.org/dc/elements/1.1/"
   xmlns:cc="http://creativecommons.org/ns#"
   xmlns:rdf="http://www.w3.org/1999/02/22-rdf-syntax-ns#"
   xmlns:svg="http://www.w3.org/2000/svg"
   xmlns="http://www.w3.org/2000/svg"
   xmlns:sodipodi="http://sodipodi.sourceforge.net/DTD/sodipodi-0.dtd"
   xmlns:inkscape="http://www.inkscape.org/namespaces/inkscape"
   width="564pt"
   height="426pt"
   viewBox="0.00 0.00 564.00 426.00"
   id="svg2"
   version="1.1"
   inkscape:version="0.48.0 r9654"
   sodipodi:docname="1_fabrication.svg">
  <metadata
     id="metadata211">
    <rdf:RDF>
      <cc:Work
         rdf:about="">
        <dc:format>image/svg+xml</dc:format>
        <dc:type
           rdf:resource="http://purl.org/dc/dcmitype/StillImage" />
      </cc:Work>
    </rdf:RDF>
  </metadata>
  <defs
     id="defs209" />
  <sodipodi:namedview
     pagecolor="#ffffff"
     bordercolor="#666666"
     borderopacity="1"
     objecttolerance="10"
     gridtolerance="10"
     guidetolerance="10"
     inkscape:pageopacity="0"
     inkscape:pageshadow="2"
     inkscape:window-width="1440"
     inkscape:window-height="857"
     id="namedview207"
     showgrid="false"
     inkscape:zoom="16.34554"
     inkscape:cx="385.13909"
     inkscape:cy="413.70394"
     inkscape:window-x="0"
     inkscape:window-y="22"
     inkscape:window-maximized="1"
     inkscape:current-layer="svg2" />
  <polygon
     style="fill:#ffffff;stroke:#ffffff"
     id="polygon7"
     points="-4,5 -4,5 -4,-422 561,-422 561,5 "
     transform="translate(3.446273,422)" />
  <g
     class="node"
     id="node1"
     transform="translate(4,422)">
    <title
       id="title10">PH160x40</title>
    <polygon
       style="fill:#4169e1;stroke:#000000"
       id="polygon12"
       points="267,-382 355,-382 355,-418 355,-418 267,-418 " />
    <text
       style="font-size:14px;text-anchor:middle;font-family:'Times Roman,serif'"
       id="text14"
       font-size="14.00"
       y="-396.39999"
       x="311">PH160x40</text>
  </g>
  <g
     class="node"
     id="node2"
     transform="translate(4,422)">
    <title
       id="title17">PH080x40</title>
    <polygon
       style="fill:#4169e1;stroke:#000000"
       id="polygon19"
       points="158,-382 246,-382 246,-418 246,-418 158,-418 " />
    <text
       style="font-size:14px;text-anchor:middle;font-family:'Times Roman,serif'"
       id="text21"
       font-size="14.00"
       y="-396.39999"
       x="202">PH080x40</text>
  </g>
  <g
     class="node"
     id="node3"
     transform="translate(4,422)">
    <title
       id="title24">PH040x40</title>
    <polygon
       style="fill:#4169e1;stroke:#000000"
       id="polygon26"
       points="47,-382 135,-382 135,-418 135,-418 47,-418 " />
    <text
       style="font-size:14px;text-anchor:middle;font-family:'Times Roman,serif'"
       id="text28"
       font-size="14.00"
       y="-396.39999"
       x="91">PH040x40</text>
  </g>
  <g
     class="node"
     id="node4"
     transform="translate(4,422)">
    <title
       id="title31">PV038x40</title>
    <polygon
       style="fill:#4169e1;stroke:#000000"
       id="polygon33"
       points="374,-382 462,-382 462,-418 462,-418 374,-418 " />
    <text
       style="font-size:14px;text-anchor:middle;font-family:'Times Roman,serif'"
       id="text35"
       font-size="14.00"
       y="-396.39999"
       x="418">PV038x40</text>
  </g>
  <g
     class="node"
     id="node5"
     transform="translate(4,422)">
    <title
       id="title38">finition</title>
    <ellipse
       style="fill:#a52a2a;stroke:#000000"
       sodipodi:ry="18.3848"
       sodipodi:rx="48.083302"
       sodipodi:cy="-201"
       sodipodi:cx="149"
       d="m 197.0833,-201 c 0,10.15364 -21.52763,18.3848 -48.0833,18.3848 -26.55567,0 -48.0833,-8.23116 -48.0833,-18.3848 0,-10.15364 21.52763,-18.3848 48.0833,-18.3848 26.55567,0 48.0833,8.23116 48.0833,18.3848 z"
       id="ellipse40"
       ry="18.3848"
       rx="48.083302"
       cy="-201"
       cx="149" />
    <text
       style="font-size:14px;text-anchor:middle;font-family:'Times Roman,serif'"
       id="text42"
       font-size="14.00"
       y="-197.39999"
       x="149">Finition</text>
  </g>
  <path
     d="M 167.376,203.34 C 195.992,168.188 260.203,89.312 293.72,48.14"
     id="path47"
     inkscape:connector-curvature="0"
     style="fill:none;stroke:#000000" />
  <polygon
     points="287.161,-376.26 296.188,-381.806 292.59,-371.841 287.161,-376.26 "
     id="polygon49"
     style="fill:#000000;stroke:#000000"
     transform="translate(4,422)" />
  <text
     x="214.54065"
     y="91.653259"
     font-size="14.00"
     id="text51"
     style="font-size:14px;text-anchor:middle;font-family:'Times Roman,serif'">0 ou 1</text>
  <path
     transform="translate(4,422)"
     style="fill:none;stroke:#000000"
     d="m 187.21975,-328.19991 44.01162,10e-6 9.66663,14.3129"
     id="polyline53"
     inkscape:connector-curvature="0"
     sodipodi:nodetypes="ccc" />
  <path
     d="M 157.095,202.404 C 161.965,180.641 170.509,143.561 179,112 184.633,91.062 191.695,67.605 197.184,49.889"
     id="path58"
     inkscape:connector-curvature="0"
     style="fill:none;stroke:#000000" />
  <polygon
     points="189.892,-373.312 196.211,-381.816 196.574,-371.227 189.892,-373.312 "
     id="polygon60"
     style="fill:#000000;stroke:#000000"
     transform="translate(4,422)" />
  <text
     x="151.52614"
     y="125.4306"
     font-size="14.00"
     id="text62"
     style="font-size:14px;text-anchor:middle;font-family:'Times Roman,serif'">0 ou 1</text>
  <path
     transform="matrix(-1,0,0,1,346.66796,422)"
     style="fill:none;stroke:#000000"
     d="M 217.64666,-292 175,-292 l -3.72519,-4.03029"
     id="polyline64"
     inkscape:connector-curvature="0"
     sodipodi:nodetypes="ccc" />
  <path
     d="M 147.166,202.57 C 141.396,184.219 132.382,155.224 125,130 117.061,102.875 108.475,71.767 102.5302,49.926"
     id="path69"
     inkscape:connector-curvature="0"
     style="fill:none;stroke:#000000" />
  <polygon
     points="95.0795,-371.426 95.8387,-381.994 101.835,-373.26 95.0795,-371.426 "
     id="polygon71"
     style="fill:#000000;stroke:#000000"
     transform="translate(4,422)" />
  <text
     x="97.387703"
     y="124.60001"
     font-size="14.00"
     id="text73"
     style="font-size:14px;text-anchor:middle;font-family:'Times Roman,serif'">0 ou 1</text>
  <path
     transform="matrix(-1,0,0,1,245.87125,422)"
     style="fill:none;stroke:#000000"
     d="M 174.85963,-292 121,-292 l 0.022,0.074"
     id="polyline75"
     inkscape:connector-curvature="0"
     sodipodi:nodetypes="ccc" />
  <path
     d="M 178.101,204.798 C 205.333,187.026 249.889,157.381 287,130 324.21,102.546 365.526,69.022 392.531,46.676"
     id="path80"
     inkscape:connector-curvature="0"
     style="fill:none;stroke:#000000" />
  <polygon
     points="386.501,-378.188 396.431,-381.881 390.971,-372.801 386.501,-378.188 "
     id="polygon82"
     style="fill:#000000;stroke:#000000"
     transform="translate(4,422)" />
  <text
     x="312.11957"
     y="86.392853"
     font-size="14.00"
     id="text84"
     style="font-size:14px;text-anchor:middle;font-family:'Times Roman,serif'">0 ou 1</text>
  <path
     transform="translate(4,422)"
     style="fill:none;stroke:#000000"
     d="m 285.62084,-334.23296 43.5355,0.0805 3.53766,3.9137"
     id="polyline86"
     inkscape:connector-curvature="0"
     sodipodi:nodetypes="ccc" />
  <g
     class="node"
     id="node6"
     transform="translate(4,422)">
    <title
       id="title89">VERM50</title>
    <polygon
       style="fill:#a52a2a;stroke:#000000"
       id="polygon91"
       points="6.06806e-15,-7.10543e-15 74,0 74,-36 74,-36 2.00881e-14,-36 " />
    <text
       style="font-size:14px;text-anchor:middle;font-family:'Times Roman,serif'"
       id="text93"
       font-size="14.00"
       y="-14.4"
       x="37">VERM50</text>
  </g>
  <g
     class="edge"
     id="edge18"
     transform="translate(4,422)">
    <title
       id="title96">VERM50-&gt;finition</title>
    <path
       style="fill:none;stroke:#000000;stroke-dasharray:5, 2"
       inkscape:connector-curvature="0"
       id="path98"
       d="M 48.1485,-36.2158 C 67.9394,-68.5528 109.299,-136.132 132.432,-173.929" />
    <polygon
       style="fill:#000000;stroke:#000000"
       id="polygon100"
       points="135.662,-172.501 129.691,-176.156 129.691,-176.156 137.897,-182.858 " />
  </g>
  <g
     class="node"
     id="node7"
     transform="translate(4,422)">
    <title
       id="title103">VERB50</title>
    <polygon
       style="fill:#a52a2a;stroke:#000000"
       id="polygon105"
       points="92,-7.10543e-15 164,0 164,-36 164,-36 92,-36 " />
    <text
       style="font-size:14px;text-anchor:middle;font-family:'Times Roman,serif'"
       id="text107"
       font-size="14.00"
       y="-14.4"
       x="128">VERB50</text>
  </g>
  <g
     class="edge"
     id="edge20"
     transform="translate(4,422)">
    <title
       id="title110">VERB50-&gt;finition</title>
    <path
       style="fill:none;stroke:#000000;stroke-dasharray:5, 2"
       inkscape:connector-curvature="0"
       id="path112"
       d="m 130.09,-36.2158 c 3.661,-31.8976 11.256,-98.0862 15.625,-136.1572" />
    <polygon
       style="fill:#000000;stroke:#000000"
       id="polygon114"
       points="149.193,-171.979 142.238,-172.777 142.238,-172.777 146.856,-182.313 " />
  </g>
  <g
     class="node"
     id="node8"
     transform="translate(4,422)">
    <title
       id="title117">PEINT50</title>
    <polygon
       style="fill:#a52a2a;stroke:#000000"
       id="polygon119"
       points="182,-7.10543e-15 258,0 258,-36 258,-36 182,-36 " />
    <text
       style="font-size:14px;text-anchor:middle;font-family:'Times Roman,serif'"
       id="text121"
       font-size="14.00"
       y="-14.4"
       x="220">PEINT50</text>
  </g>
  <g
     class="edge"
     id="edge22"
     transform="translate(4,422)">
    <title
       id="title124">PEINT50-&gt;finition</title>
    <path
       style="fill:none;stroke:#000000;stroke-dasharray:5, 2"
       inkscape:connector-curvature="0"
       id="path126"
       d="M 212.933,-36.2158 C 200.472,-68.3327 174.524,-135.214 159.804,-173.154" />
    <polygon
       style="fill:#000000;stroke:#000000"
       id="polygon128"
       points="163.024,-174.529 156.498,-171.997 156.498,-171.997 156.144,-182.586 " />
  </g>
  <g
     class="node"
     id="node9"
     transform="translate(4,422)">
    <title
       id="title131">mp</title>
    <ellipse
       style="fill:#a52a2a;stroke:#000000"
       sodipodi:ry="18.3848"
       sodipodi:rx="94.959602"
       sodipodi:cy="-201"
       sodipodi:cx="395"
       d="m 489.9596,-201 c 0,10.15364 -42.51486,18.3848 -94.9596,18.3848 -52.44474,0 -94.9596,-8.23116 -94.9596,-18.3848 0,-10.15364 42.51486,-18.3848 94.9596,-18.3848 52.44474,0 94.9596,8.23116 94.9596,18.3848 z"
       id="ellipse133"
       ry="18.3848"
       rx="94.959602"
       cy="-201"
       cx="395" />
    <text
       style="font-size:14px;text-anchor:middle;font-family:'Times Roman,serif'"
       id="text135"
       font-size="14.00"
       y="-197.39999"
       x="395">Matière première</text>
  </g>
  <g
     class="edge"
     id="edge14"
     transform="translate(4,422)">
    <title
       id="title138">mp-&gt;PH160x40</title>
    <path
       style="fill:none;stroke:#000000"
       inkscape:connector-curvature="0"
       id="path140"
       d="m 395.541,-219.5 c 0.006,-22.314 -2.078,-60.556 -14.541,-90.5 -10.066,-24.186 -28.432,-47.418 -43.827,-64.219" />
    <polygon
       style="fill:#000000;stroke:#000000"
       id="polygon142"
       points="339.312,-377.053 334.219,-372.25 334.219,-372.25 329.904,-381.926 " />
  </g>
  <g
     class="edge"
     id="edge10"
     transform="translate(4,422)">
    <title
       id="title145">mp-&gt;PH080x40</title>
    <path
       style="fill:none;stroke:#000000"
       inkscape:connector-curvature="0"
       id="path147"
       d="M 377.189,-219.365 C 342.56,-255.07 266.101,-333.906 226.637,-374.597" />
    <polygon
       style="fill:#000000;stroke:#000000"
       id="polygon149"
       points="228.964,-377.225 223.939,-372.352 223.939,-372.352 219.489,-381.967 " />
  </g>
  <g
     class="edge"
     id="edge6"
     transform="translate(4,422)">
    <title
       id="title152">mp-&gt;PH040x40</title>
    <path
       style="fill:none;stroke:#000000"
       inkscape:connector-curvature="0"
       id="path154"
       d="M 357.55,-218.138 C 321.866,-235.081 267.185,-262.66 223,-292 c -38.449,-25.532 -79.014,-60.012 -104.863,-83.078" />
    <polygon
       style="fill:#000000;stroke:#000000"
       id="polygon156"
       points="120.382,-377.765 115.703,-372.559 115.703,-372.559 110.605,-381.847 " />
  </g>
  <g
     class="edge"
     id="edge2"
     transform="translate(4,422)">
    <title
       id="title159">mp-&gt;PV038x40</title>
    <path
       style="fill:none;stroke:#000000"
       inkscape:connector-curvature="0"
       id="path161"
       d="m 397.328,-219.816 c 2.264,-18.398 5.775,-47.208 8.672,-72.184 3.124,-26.933 6.522,-57.664 8.903,-79.44" />
    <polygon
       style="fill:#000000;stroke:#000000"
       id="polygon163"
       points="418.411,-371.328 411.452,-372.087 411.452,-372.087 416.015,-381.649 " />
  </g>
  <g
     class="node"
     id="node10"
     transform="translate(4,422)">
    <title
       id="title166">HETRE10</title>
    <polygon
       style="fill:#a52a2a;stroke:#000000"
       id="polygon168"
       points="276,-7.10543e-15 358,0 358,-36 358,-36 276,-36 " />
    <text
       style="font-size:14px;text-anchor:middle;font-family:'Times Roman,serif'"
       id="text170"
       font-size="14.00"
       y="-14.4"
       x="317">HETRE10</text>
  </g>
  <g
     class="edge"
     id="edge24"
     transform="translate(4,422)">
    <title
       id="title173">HETRE10-&gt;mp</title>
    <path
       style="fill:none;stroke:#000000;stroke-dasharray:5, 2"
       inkscape:connector-curvature="0"
       id="path175"
       d="m 324.764,-36.2158 c 13.654,-32.034 42.049,-98.6522 58.242,-136.6432" />
    <polygon
       style="fill:#000000;stroke:#000000"
       id="polygon177"
       points="386.334,-171.741 379.894,-174.486 379.894,-174.486 387.035,-182.313 " />
  </g>
  <g
     class="node"
     id="node11"
     transform="translate(4,422)">
    <title
       id="title180">FRENE10</title>
    <polygon
       style="fill:#a52a2a;stroke:#000000"
       id="polygon182"
       points="376,-7.10543e-15 456,0 456,-36 456,-36 376,-36 " />
    <text
       style="font-size:14px;text-anchor:middle;font-family:'Times Roman,serif'"
       id="text184"
       font-size="14.00"
       y="-14.4"
       x="416">FRENE10</text>
  </g>
  <g
     class="edge"
     id="edge26"
     transform="translate(4,422)">
    <title
       id="title187">FRENE10-&gt;mp</title>
    <path
       style="fill:none;stroke:#000000;stroke-dasharray:5, 2"
       inkscape:connector-curvature="0"
       id="path189"
       d="M 413.91,-36.2158 C 410.249,-68.1134 402.654,-134.302 398.285,-172.373" />
    <polygon
       style="fill:#000000;stroke:#000000"
       id="polygon191"
       points="401.762,-172.777 394.807,-171.979 394.807,-171.979 397.144,-182.313 " />
  </g>
  <g
     class="node"
     id="node12"
     transform="translate(4,422)">
    <title
       id="title194">CHENE10</title>
    <polygon
       style="fill:#a52a2a;stroke:#000000"
       id="polygon196"
       points="474,-7.10543e-15 556,0 556,-36 556,-36 474,-36 " />
    <text
       style="font-size:14px;text-anchor:middle;font-family:'Times Roman,serif'"
       id="text198"
       font-size="14.00"
       y="-14.4"
       x="515">CHENE10</text>
  </g>
  <g
     class="edge"
     id="edge28"
     transform="translate(4,422)">
    <title
       id="title201">CHENE10-&gt;mp</title>
    <path
       style="fill:none;stroke:#000000;stroke-dasharray:5, 2"
       inkscape:connector-curvature="0"
       id="path203"
       d="M 503.055,-36.2158 C 481.816,-68.6061 437.39,-136.354 412.629,-174.116" />
    <polygon
       style="fill:#000000;stroke:#000000"
       id="polygon205"
       points="415.485,-176.143 409.631,-172.305 409.631,-172.305 407.075,-182.586 " />
  </g>
</svg>
