<?xml version="1.0" encoding="UTF-8" standalone="no"?>
<!DOCTYPE svg PUBLIC "-//W3C//DTD SVG 1.1//EN"
 "http://www.w3.org/Graphics/SVG/1.1/DTD/svg11.dtd">
<!-- Generated by graphviz version 2.26.3 (20100126.1600)
 -->
<!-- Title: _anonymous_0 Pages: 1 -->
<svg width="564pt" height="426pt"
 viewBox="0.00 0.00 564.00 426.00" xmlns="http://www.w3.org/2000/svg" xmlns:xlink="http://www.w3.org/1999/xlink">
<g id="graph1" class="graph" transform="scale(1 1) rotate(0) translate(4 422)">
<title>_anonymous_0</title>
<polygon fill="white" stroke="white" points="-4,5 -4,-422 561,-422 561,5 -4,5"/>
<!-- PH160x40 -->
<g id="node1" class="node"><title>PH160x40</title>
<polygon fill="royalblue" stroke="black" points="355,-418 267,-418 267,-382 355,-382 355,-418"/>
<text text-anchor="middle" x="311" y="-396.4" font-family="Times Roman,serif" font-size="14.00">PH160x40</text>
</g>
<!-- PH080x40 -->
<g id="node2" class="node"><title>PH080x40</title>
<polygon fill="royalblue" stroke="black" points="246,-418 158,-418 158,-382 246,-382 246,-418"/>
<text text-anchor="middle" x="202" y="-396.4" font-family="Times Roman,serif" font-size="14.00">PH080x40</text>
</g>
<!-- PH040x40 -->
<g id="node3" class="node"><title>PH040x40</title>
<polygon fill="royalblue" stroke="black" points="135,-418 47,-418 47,-382 135,-382 135,-418"/>
<text text-anchor="middle" x="91" y="-396.4" font-family="Times Roman,serif" font-size="14.00">PH040x40</text>
</g>
<!-- PV038x40 -->
<g id="node4" class="node"><title>PV038x40</title>
<polygon fill="royalblue" stroke="black" points="462,-418 374,-418 374,-382 462,-382 462,-418"/>
<text text-anchor="middle" x="418" y="-396.4" font-family="Times Roman,serif" font-size="14.00">PV038x40</text>
</g>
<!-- finition -->
<g id="node5" class="node"><title>finition</title>
<ellipse fill="brown" stroke="black" cx="149" cy="-201" rx="48.0833" ry="18.3848"/>
<text text-anchor="middle" x="149" y="-197.4" font-family="Times Roman,serif" font-size="14.00">Finition</text>
</g>
<!-- finition&#45;&gt;PH160x40 -->
<g id="edge16" class="edge"><title>finition&#45;&gt;PH160x40</title>
<path fill="none" stroke="black" d="M163.376,-218.66C191.992,-253.812 256.203,-332.688 289.72,-373.86"/>
<polygon fill="black" stroke="black" points="287.161,-376.26 296.188,-381.806 292.59,-371.841 287.161,-376.26"/>
<text text-anchor="middle" x="256.5" y="-297.4" font-family="Times Roman,serif" font-size="14.00">0 ou 1</text>
<polyline fill="none" stroke="black" points="279,-292 234,-292 240.898,-313.887 "/>
</g>
<!-- finition&#45;&gt;PH080x40 -->
<g id="edge12" class="edge"><title>finition&#45;&gt;PH080x40</title>
<path fill="none" stroke="black" d="M153.095,-219.596C157.965,-241.359 166.509,-278.439 175,-310 180.633,-330.938 187.695,-354.395 193.184,-372.111"/>
<polygon fill="black" stroke="black" points="189.892,-373.312 196.211,-381.816 196.574,-371.227 189.892,-373.312"/>
<text text-anchor="middle" x="197.5" y="-297.4" font-family="Times Roman,serif" font-size="14.00">0 ou 1</text>
<polyline fill="none" stroke="black" points="220,-292 175,-292 174.303,-307.399 "/>
</g>
<!-- finition&#45;&gt;PH040x40 -->
<g id="edge8" class="edge"><title>finition&#45;&gt;PH040x40</title>
<path fill="none" stroke="black" d="M143.166,-219.43C137.396,-237.781 128.382,-266.776 121,-292 113.061,-319.125 104.475,-350.233 98.5302,-372.074"/>
<polygon fill="black" stroke="black" points="95.0795,-371.426 95.8387,-381.994 101.835,-373.26 95.0795,-371.426"/>
<text text-anchor="middle" x="143.5" y="-297.4" font-family="Times Roman,serif" font-size="14.00">0 ou 1</text>
<polyline fill="none" stroke="black" points="166,-292 121,-292 121.022,-291.926 "/>
</g>
<!-- finition&#45;&gt;PV038x40 -->
<g id="edge4" class="edge"><title>finition&#45;&gt;PV038x40</title>
<path fill="none" stroke="black" d="M174.101,-217.202C201.333,-234.974 245.889,-264.619 283,-292 320.21,-319.454 361.526,-352.978 388.531,-375.324"/>
<polygon fill="black" stroke="black" points="386.501,-378.188 396.431,-381.881 390.971,-372.801 386.501,-378.188"/>
<text text-anchor="middle" x="327.5" y="-297.4" font-family="Times Roman,serif" font-size="14.00">0 ou 1</text>
<polyline fill="none" stroke="black" points="350,-292 305,-292 282.997,-291.997 "/>
</g>
<!-- VERM50 -->
<g id="node6" class="node"><title>VERM50</title>
<polygon fill="brown" stroke="black" points="74,-36 2.00881e-14,-36 6.06806e-15,-7.10543e-15 74,-0 74,-36"/>
<text text-anchor="middle" x="37" y="-14.4" font-family="Times Roman,serif" font-size="14.00">VERM50</text>
</g>
<!-- VERM50&#45;&gt;finition -->
<g id="edge18" class="edge"><title>VERM50&#45;&gt;finition</title>
<path fill="none" stroke="black" stroke-dasharray="5,2" d="M48.1485,-36.2158C67.9394,-68.5528 109.299,-136.132 132.432,-173.929"/>
<polygon fill="black" stroke="black" points="129.691,-176.156 137.897,-182.858 135.662,-172.501 129.691,-176.156"/>
</g>
<!-- VERB50 -->
<g id="node7" class="node"><title>VERB50</title>
<polygon fill="brown" stroke="black" points="164,-36 92,-36 92,-7.10543e-15 164,-0 164,-36"/>
<text text-anchor="middle" x="128" y="-14.4" font-family="Times Roman,serif" font-size="14.00">VERB50</text>
</g>
<!-- VERB50&#45;&gt;finition -->
<g id="edge20" class="edge"><title>VERB50&#45;&gt;finition</title>
<path fill="none" stroke="black" stroke-dasharray="5,2" d="M130.09,-36.2158C133.751,-68.1134 141.346,-134.302 145.715,-172.373"/>
<polygon fill="black" stroke="black" points="142.238,-172.777 146.856,-182.313 149.193,-171.979 142.238,-172.777"/>
</g>
<!-- PEINT50 -->
<g id="node8" class="node"><title>PEINT50</title>
<polygon fill="brown" stroke="black" points="258,-36 182,-36 182,-7.10543e-15 258,-0 258,-36"/>
<text text-anchor="middle" x="220" y="-14.4" font-family="Times Roman,serif" font-size="14.00">PEINT50</text>
</g>
<!-- PEINT50&#45;&gt;finition -->
<g id="edge22" class="edge"><title>PEINT50&#45;&gt;finition</title>
<path fill="none" stroke="black" stroke-dasharray="5,2" d="M212.933,-36.2158C200.472,-68.3327 174.524,-135.214 159.804,-173.154"/>
<polygon fill="black" stroke="black" points="156.498,-171.997 156.144,-182.586 163.024,-174.529 156.498,-171.997"/>
</g>
<!-- mp -->
<g id="node9" class="node"><title>mp</title>
<ellipse fill="brown" stroke="black" cx="395" cy="-201" rx="94.9596" ry="18.3848"/>
<text text-anchor="middle" x="395" y="-197.4" font-family="Times Roman,serif" font-size="14.00">Matière première</text>
</g>
<!-- mp&#45;&gt;PH160x40 -->
<g id="edge14" class="edge"><title>mp&#45;&gt;PH160x40</title>
<path fill="none" stroke="black" d="M395.541,-219.5C395.547,-241.814 393.463,-280.056 381,-310 370.934,-334.186 352.568,-357.418 337.173,-374.219"/>
<polygon fill="black" stroke="black" points="334.219,-372.25 329.904,-381.926 339.312,-377.053 334.219,-372.25"/>
</g>
<!-- mp&#45;&gt;PH080x40 -->
<g id="edge10" class="edge"><title>mp&#45;&gt;PH080x40</title>
<path fill="none" stroke="black" d="M377.189,-219.365C342.56,-255.07 266.101,-333.906 226.637,-374.597"/>
<polygon fill="black" stroke="black" points="223.939,-372.352 219.489,-381.967 228.964,-377.225 223.939,-372.352"/>
</g>
<!-- mp&#45;&gt;PH040x40 -->
<g id="edge6" class="edge"><title>mp&#45;&gt;PH040x40</title>
<path fill="none" stroke="black" d="M357.55,-218.138C321.866,-235.081 267.185,-262.66 223,-292 184.551,-317.532 143.986,-352.012 118.137,-375.078"/>
<polygon fill="black" stroke="black" points="115.703,-372.559 110.605,-381.847 120.382,-377.765 115.703,-372.559"/>
</g>
<!-- mp&#45;&gt;PV038x40 -->
<g id="edge2" class="edge"><title>mp&#45;&gt;PV038x40</title>
<path fill="none" stroke="black" d="M397.328,-219.816C399.592,-238.214 403.103,-267.024 406,-292 409.124,-318.933 412.522,-349.664 414.903,-371.44"/>
<polygon fill="black" stroke="black" points="411.452,-372.087 416.015,-381.649 418.411,-371.328 411.452,-372.087"/>
</g>
<!-- HETRE10 -->
<g id="node10" class="node"><title>HETRE10</title>
<polygon fill="brown" stroke="black" points="358,-36 276,-36 276,-7.10543e-15 358,-0 358,-36"/>
<text text-anchor="middle" x="317" y="-14.4" font-family="Times Roman,serif" font-size="14.00">HETRE10</text>
</g>
<!-- HETRE10&#45;&gt;mp -->
<g id="edge24" class="edge"><title>HETRE10&#45;&gt;mp</title>
<path fill="none" stroke="black" stroke-dasharray="5,2" d="M324.764,-36.2158C338.418,-68.2498 366.813,-134.868 383.006,-172.859"/>
<polygon fill="black" stroke="black" points="379.894,-174.486 387.035,-182.313 386.334,-171.741 379.894,-174.486"/>
</g>
<!-- FRENE10 -->
<g id="node11" class="node"><title>FRENE10</title>
<polygon fill="brown" stroke="black" points="456,-36 376,-36 376,-7.10543e-15 456,-0 456,-36"/>
<text text-anchor="middle" x="416" y="-14.4" font-family="Times Roman,serif" font-size="14.00">FRENE10</text>
</g>
<!-- FRENE10&#45;&gt;mp -->
<g id="edge26" class="edge"><title>FRENE10&#45;&gt;mp</title>
<path fill="none" stroke="black" stroke-dasharray="5,2" d="M413.91,-36.2158C410.249,-68.1134 402.654,-134.302 398.285,-172.373"/>
<polygon fill="black" stroke="black" points="394.807,-171.979 397.144,-182.313 401.762,-172.777 394.807,-171.979"/>
</g>
<!-- CHENE10 -->
<g id="node12" class="node"><title>CHENE10</title>
<polygon fill="brown" stroke="black" points="556,-36 474,-36 474,-7.10543e-15 556,-0 556,-36"/>
<text text-anchor="middle" x="515" y="-14.4" font-family="Times Roman,serif" font-size="14.00">CHENE10</text>
</g>
<!-- CHENE10&#45;&gt;mp -->
<g id="edge28" class="edge"><title>CHENE10&#45;&gt;mp</title>
<path fill="none" stroke="black" stroke-dasharray="5,2" d="M503.055,-36.2158C481.816,-68.6061 437.39,-136.354 412.629,-174.116"/>
<polygon fill="black" stroke="black" points="409.631,-172.305 407.075,-182.586 415.485,-176.143 409.631,-172.305"/>
</g>
</g>
</svg>
