<?xml version="1.0" encoding="UTF-8" standalone="no"?>
<!DOCTYPE svg PUBLIC "-//W3C//DTD SVG 1.1//EN"
 "http://www.w3.org/Graphics/SVG/1.1/DTD/svg11.dtd">
<!-- Generated by graphviz version 2.26.3 (20100126.1600)
 -->
<!-- Title: _anonymous_0 Pages: 1 -->
<svg width="534pt" height="640pt"
 viewBox="0.00 0.00 534.00 640.00" xmlns="http://www.w3.org/2000/svg" xmlns:xlink="http://www.w3.org/1999/xlink">
<g id="graph1" class="graph" transform="scale(1 1) rotate(0) translate(4 636)">
<title>_anonymous_0</title>
<polygon fill="white" stroke="white" points="-4,5 -4,-636 531,-636 531,5 -4,5"/>
<!-- KBLOC1 -->
<g id="node1" class="node"><title>KBLOC1</title>
<polygon fill="lightblue" stroke="black" points="114,-632 42,-632 42,-596 114,-596 114,-632"/>
<text text-anchor="middle" x="78" y="-610.4" font-family="Times Roman,serif" font-size="14.00">KBLOC1</text>
</g>
<!-- KBLOC2 -->
<g id="node2" class="node"><title>KBLOC2</title>
<polygon fill="lightblue" stroke="black" points="396,-632 324,-632 324,-596 396,-596 396,-632"/>
<text text-anchor="middle" x="360" y="-610.4" font-family="Times Roman,serif" font-size="14.00">KBLOC2</text>
</g>
<!-- KBLOC4 -->
<g id="node3" class="node"><title>KBLOC4</title>
<polygon fill="lightblue" stroke="black" points="272,-632 200,-632 200,-596 272,-596 272,-632"/>
<text text-anchor="middle" x="236" y="-610.4" font-family="Times Roman,serif" font-size="14.00">KBLOC4</text>
</g>
<!-- PH160x40 -->
<g id="node4" class="node"><title>PH160x40</title>
<polygon fill="royalblue" stroke="black" points="194,-234 106,-234 106,-198 194,-198 194,-234"/>
<text text-anchor="middle" x="150" y="-212.4" font-family="Times Roman,serif" font-size="14.00">PH160x40</text>
</g>
<!-- PH160x40&#45;&gt;KBLOC4 -->
<g id="edge20" class="edge"><title>PH160x40&#45;&gt;KBLOC4</title>
<path fill="none" stroke="black" d="M148.44,-234.246C144.97,-283.312 140.018,-421.311 183,-524 192.36,-546.363 206.399,-569.915 217.677,-587.314"/>
<polygon fill="black" stroke="black" points="214.855,-589.393 223.283,-595.814 220.699,-585.539 214.855,-589.393"/>
<text text-anchor="middle" x="162" y="-411.4" font-family="Times Roman,serif" font-size="14.00">2</text>
<polyline fill="none" stroke="black" points="167,-406 157,-406 154.476,-416.229 "/>
</g>
<!-- PH080x40 -->
<g id="node5" class="node"><title>PH080x40</title>
<polygon fill="royalblue" stroke="black" points="526,-234 438,-234 438,-198 526,-198 526,-234"/>
<text text-anchor="middle" x="482" y="-212.4" font-family="Times Roman,serif" font-size="14.00">PH080x40</text>
</g>
<!-- PH080x40&#45;&gt;KBLOC2 -->
<g id="edge16" class="edge"><title>PH080x40&#45;&gt;KBLOC2</title>
<path fill="none" stroke="black" d="M481.943,-234.269C481.349,-272.327 477.462,-362.508 455,-434 436.77,-492.022 400.11,-553.391 378.042,-587.377"/>
<polygon fill="black" stroke="black" points="375.067,-585.531 372.5,-595.811 380.917,-589.376 375.067,-585.531"/>
<text text-anchor="middle" x="469" y="-411.4" font-family="Times Roman,serif" font-size="14.00">2</text>
<polyline fill="none" stroke="black" points="474,-406 464,-406 460.952,-413.022 "/>
</g>
<!-- PH040x40 -->
<g id="node6" class="node"><title>PH040x40</title>
<polygon fill="royalblue" stroke="black" points="88,-234 2.93238e-14,-234 8.24688e-15,-198 88,-198 88,-234"/>
<text text-anchor="middle" x="44" y="-212.4" font-family="Times Roman,serif" font-size="14.00">PH040x40</text>
</g>
<!-- PH040x40&#45;&gt;KBLOC1 -->
<g id="edge12" class="edge"><title>PH040x40&#45;&gt;KBLOC1</title>
<path fill="none" stroke="black" d="M45.5493,-234.135C50.9478,-297.331 68.9605,-508.184 75.5545,-585.373"/>
<polygon fill="black" stroke="black" points="72.1031,-586.092 76.4416,-595.758 79.0777,-585.496 72.1031,-586.092"/>
<text text-anchor="middle" x="68" y="-411.4" font-family="Times Roman,serif" font-size="14.00">2</text>
<polyline fill="none" stroke="black" points="73,-406 63,-406 61.054,-415.632 "/>
</g>
<!-- PV038x40 -->
<g id="node7" class="node"><title>PV038x40</title>
<polygon fill="royalblue" stroke="black" points="396,-234 308,-234 308,-198 396,-198 396,-234"/>
<text text-anchor="middle" x="352" y="-212.4" font-family="Times Roman,serif" font-size="14.00">PV038x40</text>
</g>
<!-- plancheVertEtFix -->
<g id="node8" class="node"><title>plancheVertEtFix</title>
<ellipse fill="lightblue" stroke="black" cx="312" cy="-415" rx="133.851" ry="18.3848"/>
<text text-anchor="middle" x="312" y="-411.4" font-family="Times Roman,serif" font-size="14.00">Planche vert. et fixations</text>
</g>
<!-- PV038x40&#45;&gt;plancheVertEtFix -->
<g id="edge4" class="edge"><title>PV038x40&#45;&gt;plancheVertEtFix</title>
<path fill="none" stroke="black" d="M348.38,-234.011C341.427,-268.6 326.154,-344.582 317.778,-386.254"/>
<polygon fill="black" stroke="black" points="314.297,-385.814 315.757,-396.307 321.159,-387.193 314.297,-385.814"/>
</g>
<!-- plancheVertEtFix&#45;&gt;KBLOC1 -->
<g id="edge10" class="edge"><title>plancheVertEtFix&#45;&gt;KBLOC1</title>
<path fill="none" stroke="black" d="M290.405,-433.365C248.158,-469.293 154.56,-548.891 106.981,-589.354"/>
<polygon fill="black" stroke="black" points="104.555,-586.822 99.2046,-595.967 109.09,-592.155 104.555,-586.822"/>
<text text-anchor="middle" x="207" y="-511.4" font-family="Times Roman,serif" font-size="14.00">2</text>
<polyline fill="none" stroke="black" points="212,-506 202,-506 201.91,-508.624 "/>
</g>
<!-- plancheVertEtFix&#45;&gt;KBLOC2 -->
<g id="edge14" class="edge"><title>plancheVertEtFix&#45;&gt;KBLOC2</title>
<path fill="none" stroke="black" d="M316.516,-433.721C324.974,-468.79 343.249,-544.552 353.202,-585.818"/>
<polygon fill="black" stroke="black" points="349.853,-586.861 355.601,-595.761 356.658,-585.219 349.853,-586.861"/>
<text text-anchor="middle" x="355" y="-511.4" font-family="Times Roman,serif" font-size="14.00">2 à 3</text>
<polyline fill="none" stroke="black" points="373,-506 337,-506 337.121,-519.147 "/>
</g>
<!-- plancheVertEtFix&#45;&gt;KBLOC4 -->
<g id="edge18" class="edge"><title>plancheVertEtFix&#45;&gt;KBLOC4</title>
<path fill="none" stroke="black" d="M304.85,-433.721C291.4,-468.939 262.277,-545.196 246.563,-586.342"/>
<polygon fill="black" stroke="black" points="243.264,-585.171 242.966,-595.761 249.803,-587.668 243.264,-585.171"/>
<text text-anchor="middle" x="294" y="-511.4" font-family="Times Roman,serif" font-size="14.00">2 à 5</text>
<polyline fill="none" stroke="black" points="312,-506 276,-506 276.62,-507.641 "/>
</g>
<!-- KFIX -->
<g id="node9" class="node"><title>KFIX</title>
<polygon fill="lightblue" stroke="black" points="290,-234 236,-234 236,-198 290,-198 290,-234"/>
<text text-anchor="middle" x="263" y="-212.4" font-family="Times Roman,serif" font-size="14.00">KFIX</text>
</g>
<!-- KFIX&#45;&gt;plancheVertEtFix -->
<g id="edge2" class="edge"><title>KFIX&#45;&gt;plancheVertEtFix</title>
<path fill="none" stroke="black" d="M267.435,-234.011C275.97,-268.674 294.74,-344.905 304.987,-386.519"/>
<polygon fill="black" stroke="black" points="301.608,-387.434 307.397,-396.307 308.405,-385.76 301.608,-387.434"/>
<text text-anchor="middle" x="293" y="-311.4" font-family="Times Roman,serif" font-size="14.00">2</text>
<polyline fill="none" stroke="black" points="298,-306 288,-306 287.718,-316.387 "/>
</g>
<!-- FIX_1 -->
<g id="node10" class="node"><title>FIX_1</title>
<polygon fill="brown" stroke="black" points="254,-36 198,-36 198,-7.10543e-15 254,-0 254,-36"/>
<text text-anchor="middle" x="226" y="-14.4" font-family="Times Roman,serif" font-size="14.00">FIX_1</text>
</g>
<!-- FIX_1&#45;&gt;KFIX -->
<g id="edge6" class="edge"><title>FIX_1&#45;&gt;KFIX</title>
<path fill="none" stroke="black" stroke-dasharray="5,2" d="M229.415,-36.2725C235.899,-70.9717 250.033,-146.611 257.737,-187.837"/>
<polygon fill="black" stroke="black" points="254.316,-188.585 259.594,-197.772 261.197,-187.299 254.316,-188.585"/>
<text text-anchor="middle" x="250" y="-113.4" font-family="Times Roman,serif" font-size="14.00">2</text>
<polyline fill="none" stroke="black" points="255,-108 245,-108 244.738,-118.276 "/>
</g>
<!-- FIX_2 -->
<g id="node11" class="node"><title>FIX_2</title>
<polygon fill="brown" stroke="black" points="328,-36 272,-36 272,-7.10543e-15 328,-0 328,-36"/>
<text text-anchor="middle" x="300" y="-14.4" font-family="Times Roman,serif" font-size="14.00">FIX_2</text>
</g>
<!-- FIX_2&#45;&gt;KFIX -->
<g id="edge8" class="edge"><title>FIX_2&#45;&gt;KFIX</title>
<path fill="none" stroke="black" stroke-dasharray="5,2" d="M296.585,-36.2725C290.101,-70.9717 275.967,-146.611 268.263,-187.837"/>
<polygon fill="black" stroke="black" points="264.803,-187.299 266.406,-197.772 271.684,-188.585 264.803,-187.299"/>
<text text-anchor="middle" x="287" y="-113.4" font-family="Times Roman,serif" font-size="14.00">2</text>
<polyline fill="none" stroke="black" points="292,-108 282,-108 281.698,-115.94 "/>
</g>
</g>
</svg>
