<?xml version="1.0" encoding="UTF-8" standalone="no"?>
<!-- Generated by graphviz version 2.26.3 (20100126.1600)
 -->

<!-- Title: _anonymous_0 Pages: 1 -->

<svg
   xmlns:dc="http://purl.org/dc/elements/1.1/"
   xmlns:cc="http://creativecommons.org/ns#"
   xmlns:rdf="http://www.w3.org/1999/02/22-rdf-syntax-ns#"
   xmlns:svg="http://www.w3.org/2000/svg"
   xmlns="http://www.w3.org/2000/svg"
   xmlns:sodipodi="http://sodipodi.sourceforge.net/DTD/sodipodi-0.dtd"
   xmlns:inkscape="http://www.inkscape.org/namespaces/inkscape"
   width="534pt"
   height="640pt"
   viewBox="0.00 0.00 534.00 640.00"
   id="svg3188"
   version="1.1"
   inkscape:version="0.48.0 r9654"
   sodipodi:docname="2_differenciation.svg">
  <metadata
     id="metadata3382">
    <rdf:RDF>
      <cc:Work
         rdf:about="">
        <dc:format>image/svg+xml</dc:format>
        <dc:type
           rdf:resource="http://purl.org/dc/dcmitype/StillImage" />
        <dc:title></dc:title>
      </cc:Work>
    </rdf:RDF>
  </metadata>
  <defs
     id="defs3380" />
  <sodipodi:namedview
     pagecolor="#ffffff"
     bordercolor="#666666"
     borderopacity="1"
     objecttolerance="10"
     gridtolerance="10"
     guidetolerance="10"
     inkscape:pageopacity="0"
     inkscape:pageshadow="2"
     inkscape:window-width="1440"
     inkscape:window-height="857"
     id="namedview3378"
     showgrid="true"
     inkscape:zoom="1.36"
     inkscape:cx="433.48071"
     inkscape:cy="587.01885"
     inkscape:window-x="0"
     inkscape:window-y="22"
     inkscape:window-maximized="1"
     inkscape:current-layer="svg3188">
    <inkscape:grid
       type="xygrid"
       id="grid3384"
       empspacing="5"
       visible="true"
       enabled="true"
       snapvisiblegridlinesonly="true" />
  </sodipodi:namedview>
  <polygon
     style="fill:#ffffff;stroke:#ffffff"
     id="polygon3193"
     points="-4,5 -4,5 -4,-636 531,-636 531,5 "
     transform="translate(2.9705883,636)" />
  <g
     class="node"
     id="node1"
     transform="translate(4,636)">
    <title
       id="title3196">KBLOC1</title>
    <polygon
       style="fill:#add8e6;stroke:#000000"
       id="polygon3198"
       points="42,-596 114,-596 114,-632 114,-632 42,-632 " />
    <text
       style="font-size:14px;text-anchor:middle;font-family:'Times Roman,serif'"
       id="text3200"
       font-size="14.00"
       y="-610.40002"
       x="78">KBLOC1</text>
  </g>
  <g
     class="node"
     id="node2"
     transform="translate(4,636)">
    <title
       id="title3203">KBLOC2</title>
    <polygon
       style="fill:#add8e6;stroke:#000000"
       id="polygon3205"
       points="324,-596 396,-596 396,-632 396,-632 324,-632 " />
    <text
       style="font-size:14px;text-anchor:middle;font-family:'Times Roman,serif'"
       id="text3207"
       font-size="14.00"
       y="-610.40002"
       x="360">KBLOC2</text>
  </g>
  <g
     class="node"
     id="node3"
     transform="translate(4,636)">
    <title
       id="title3210">KBLOC4</title>
    <polygon
       style="fill:#add8e6;stroke:#000000"
       id="polygon3212"
       points="200,-596 272,-596 272,-632 272,-632 200,-632 " />
    <text
       style="font-size:14px;text-anchor:middle;font-family:'Times Roman,serif'"
       id="text3214"
       font-size="14.00"
       y="-610.40002"
       x="236">KBLOC4</text>
  </g>
  <g
     class="node"
     id="node4"
     transform="translate(4,636)">
    <title
       id="title3217">PH160x40</title>
    <polygon
       style="fill:#4169e1;stroke:#000000"
       id="polygon3219"
       points="106,-198 194,-198 194,-234 194,-234 106,-234 " />
    <text
       style="font-size:14px;text-anchor:middle;font-family:'Times Roman,serif'"
       id="text3221"
       font-size="14.00"
       y="-212.39999"
       x="150">PH160x40</text>
  </g>
  <g
     class="edge"
     id="edge20"
     transform="translate(4,636)">
    <title
       id="title3224">PH160x40-&gt;KBLOC4</title>
    <path
       style="fill:none;stroke:#000000"
       inkscape:connector-curvature="0"
       id="path3226"
       d="M 148.44,-234.246 C 144.97,-283.312 140.018,-421.311 183,-524 c 9.36,-22.363 23.399,-45.915 34.677,-63.314" />
    <polygon
       style="fill:#000000;stroke:#000000"
       id="polygon3228"
       points="220.699,-585.539 214.855,-589.393 214.855,-589.393 223.283,-595.814 " />
    <text
       style="font-size:14px;text-anchor:middle;font-family:'Times Roman,serif'"
       id="text3230"
       font-size="14.00"
       y="-411.39999"
       x="162">2</text>
    <polyline
       style="fill:none;stroke:#000000"
       id="polyline3232"
       points="167,-406 157,-406 154.476,-416.229 " />
  </g>
  <g
     class="node"
     id="node5"
     transform="translate(4,636)">
    <title
       id="title3235">PH080x40</title>
    <polygon
       style="fill:#4169e1;stroke:#000000"
       id="polygon3237"
       points="438,-198 526,-198 526,-234 526,-234 438,-234 " />
    <text
       style="font-size:14px;text-anchor:middle;font-family:'Times Roman,serif'"
       id="text3239"
       font-size="14.00"
       y="-212.39999"
       x="482">PH080x40</text>
  </g>
  <path
     d="M 485.943,401.731 C 485.349,363.673 481.462,273.492 459,202 440.77,143.978 404.11,82.609 382.042,48.623"
     id="path3244"
     inkscape:connector-curvature="0"
     style="fill:none;stroke:#000000" />
  <polygon
     points="375.067,-585.531 372.5,-595.811 380.917,-589.376 375.067,-585.531 "
     id="polygon3246"
     style="fill:#000000;stroke:#000000"
     transform="translate(4,636)" />
  <text
     x="478.44116"
     y="228"
     font-size="14.00"
     id="text3248"
     style="font-size:14px;text-anchor:middle;font-family:'Times Roman,serif'">2</text>
  <path
     sodipodi:nodetypes="ccc"
     inkscape:connector-curvature="0"
     id="polyline3250"
     d="m 484,230 -12,0 -7.048,-7.022"
     style="fill:none;stroke:#000000" />
  <g
     class="node"
     id="node6"
     transform="translate(4,636)">
    <title
       id="title3253">PH040x40</title>
    <polygon
       style="fill:#4169e1;stroke:#000000"
       id="polygon3255"
       points="8.24688e-15,-198 88,-198 88,-234 88,-234 2.93238e-14,-234 " />
    <text
       style="font-size:14px;text-anchor:middle;font-family:'Times Roman,serif'"
       id="text3257"
       font-size="14.00"
       y="-212.39999"
       x="44">PH040x40</text>
  </g>
  <g
     class="edge"
     id="edge12"
     transform="translate(4,636)">
    <title
       id="title3260">PH040x40-&gt;KBLOC1</title>
    <path
       style="fill:none;stroke:#000000"
       inkscape:connector-curvature="0"
       id="path3262"
       d="m 45.5493,-234.135 c 5.3985,-63.196 23.4112,-274.049 30.0052,-351.238" />
    <polygon
       style="fill:#000000;stroke:#000000"
       id="polygon3264"
       points="79.0777,-585.496 72.1031,-586.092 72.1031,-586.092 76.4416,-595.758 " />
    <text
       style="font-size:14px;text-anchor:middle;font-family:'Times Roman,serif'"
       id="text3266"
       font-size="14.00"
       y="-411.39999"
       x="68">2</text>
    <polyline
       style="fill:none;stroke:#000000"
       id="polyline3268"
       points="73,-406 63,-406 61.054,-415.632 " />
  </g>
  <g
     class="node"
     id="node7"
     transform="translate(4,636)">
    <title
       id="title3271">PV038x40</title>
    <polygon
       style="fill:#4169e1;stroke:#000000"
       id="polygon3273"
       points="308,-198 396,-198 396,-234 396,-234 308,-234 " />
    <text
       style="font-size:14px;text-anchor:middle;font-family:'Times Roman,serif'"
       id="text3275"
       font-size="14.00"
       y="-212.39999"
       x="352">PV038x40</text>
  </g>
  <g
     class="node"
     id="node8"
     transform="translate(4,636)">
    <title
       id="title3278">plancheVertEtFix</title>
    <ellipse
       style="fill:#add8e6;stroke:#000000"
       sodipodi:ry="18.3848"
       sodipodi:rx="133.851"
       sodipodi:cy="-415"
       sodipodi:cx="312"
       d="m 445.851,-415 c 0,10.15364 -59.92714,18.3848 -133.851,18.3848 -73.92386,0 -133.851,-8.23116 -133.851,-18.3848 0,-10.15364 59.92714,-18.3848 133.851,-18.3848 73.92386,0 133.851,8.23116 133.851,18.3848 z"
       id="ellipse3280"
       ry="18.3848"
       rx="133.851"
       cy="-415"
       cx="312" />
    <text
       style="font-size:14px;text-anchor:middle;font-family:'Times Roman,serif'"
       id="text3282"
       font-size="14.00"
       y="-411.39999"
       x="312">Planche vert. et fixations</text>
  </g>
  <g
     class="edge"
     id="edge4"
     transform="translate(4,636)">
    <title
       id="title3285">PV038x40-&gt;plancheVertEtFix</title>
    <path
       style="fill:none;stroke:#000000"
       inkscape:connector-curvature="0"
       id="path3287"
       d="M 348.38,-234.011 C 341.427,-268.6 326.154,-344.582 317.778,-386.254" />
    <polygon
       style="fill:#000000;stroke:#000000"
       id="polygon3289"
       points="321.159,-387.193 314.297,-385.814 314.297,-385.814 315.757,-396.307 " />
  </g>
  <path
     d="M 294.405,202.635 C 252.158,166.707 158.56,87.109 110.981,46.646"
     id="path3294"
     inkscape:connector-curvature="0"
     style="fill:none;stroke:#000000" />
  <polygon
     points="104.555,-586.822 99.2046,-595.967 109.09,-592.155 104.555,-586.822 "
     id="polygon3296"
     style="fill:#000000;stroke:#000000"
     transform="translate(4,636)" />
  <text
     x="221.60001"
     y="130.39999"
     font-size="14.00"
     id="text3298"
     style="font-size:14px;text-anchor:middle;font-family:'Times Roman,serif'">2</text>
  <path
     sodipodi:nodetypes="ccc"
     inkscape:connector-curvature="0"
     id="polyline3300"
     d="m 228,132 -12,0 -10.09,-4.624"
     style="fill:none;stroke:#000000" />
  <path
     d="M 320.516,202.279 C 328.974,167.21 347.249,91.448 357.202,50.182"
     id="path3305"
     inkscape:connector-curvature="0"
     style="fill:none;stroke:#000000" />
  <polygon
     points="349.853,-586.861 355.601,-595.761 356.658,-585.219 349.853,-586.861 "
     id="polygon3307"
     style="fill:#000000;stroke:#000000"
     transform="translate(4,636)" />
  <text
     x="365.60001"
     y="130.39999"
     font-size="14.00"
     id="text3309"
     style="font-size:14px;text-anchor:middle;font-family:'Times Roman,serif'">2 à 3</text>
  <path
     style="fill:none;stroke:#000000"
     d="m 384,132 -36,0 -6.879,-15.147"
     id="polyline3311"
     inkscape:connector-curvature="0"
     sodipodi:nodetypes="ccc" />
  <path
     d="M 308.85,202.279 C 295.4,167.061 266.277,90.804 250.563,49.658"
     id="path3316"
     inkscape:connector-curvature="0"
     style="fill:none;stroke:#000000" />
  <polygon
     points="243.264,-585.171 242.966,-595.761 249.803,-587.668 243.264,-585.171 "
     id="polygon3318"
     style="fill:#000000;stroke:#000000"
     transform="translate(4,636)" />
  <text
     x="305.60001"
     y="130.39999"
     font-size="14.00"
     id="text3320"
     style="font-size:14px;text-anchor:middle;font-family:'Times Roman,serif'">2 à 5</text>
  <path
     transform="translate(4,636)"
     style="fill:none;stroke:#000000"
     d="m 320,-504 -36,0 -7.38,-3.641"
     id="polyline3322"
     inkscape:connector-curvature="0"
     sodipodi:nodetypes="ccc" />
  <g
     class="node"
     id="node9"
     transform="translate(4,636)">
    <title
       id="title3325">KFIX</title>
    <polygon
       style="fill:#add8e6;stroke:#000000"
       id="polygon3327"
       points="236,-198 290,-198 290,-234 290,-234 236,-234 " />
    <text
       style="font-size:14px;text-anchor:middle;font-family:'Times Roman,serif'"
       id="text3329"
       font-size="14.00"
       y="-212.39999"
       x="263">KFIX</text>
  </g>
  <g
     class="edge"
     id="edge2"
     transform="translate(4,636)">
    <title
       id="title3332">KFIX-&gt;plancheVertEtFix</title>
    <path
       style="fill:none;stroke:#000000"
       inkscape:connector-curvature="0"
       id="path3334"
       d="m 267.435,-234.011 c 8.535,-34.663 27.305,-110.894 37.552,-152.508" />
    <polygon
       style="fill:#000000;stroke:#000000"
       id="polygon3336"
       points="308.405,-385.76 301.608,-387.434 301.608,-387.434 307.397,-396.307 " />
    <text
       style="font-size:14px;text-anchor:middle;font-family:'Times Roman,serif'"
       id="text3338"
       font-size="14.00"
       y="-309.23087"
       x="297.60001">2</text>
    <path
       sodipodi:nodetypes="ccc"
       inkscape:connector-curvature="0"
       id="polyline3340"
       d="m 304,-308 -12,0 -4.282,-8.387"
       style="fill:none;stroke:#000000" />
  </g>
  <g
     class="node"
     id="node10"
     transform="translate(4,636)">
    <title
       id="title3343">FIX_1</title>
    <polygon
       style="fill:#a52a2a;stroke:#000000"
       id="polygon3345"
       points="198,-7.10543e-15 254,0 254,-36 254,-36 198,-36 " />
    <text
       style="font-size:14px;text-anchor:middle;font-family:'Times Roman,serif'"
       id="text3347"
       font-size="14.00"
       y="-14.4"
       x="226">FIX_1</text>
  </g>
  <g
     class="edge"
     id="edge6"
     transform="translate(4,636)">
    <title
       id="title3350">FIX_1-&gt;KFIX</title>
    <path
       style="fill:none;stroke:#000000;stroke-dasharray:5, 2"
       inkscape:connector-curvature="0"
       id="path3352"
       d="m 229.415,-36.2725 c 6.484,-34.6992 20.618,-110.3385 28.322,-151.5645" />
    <polygon
       style="fill:#000000;stroke:#000000"
       id="polygon3354"
       points="261.197,-187.299 254.316,-188.585 254.316,-188.585 259.594,-197.772 " />
    <text
       style="font-size:14px;text-anchor:middle;font-family:'Times Roman,serif'"
       id="text3356"
       font-size="14.00"
       y="-113.4"
       x="250">2</text>
    <polyline
       style="fill:none;stroke:#000000"
       id="polyline3358"
       points="255,-108 245,-108 244.738,-118.276 " />
  </g>
  <g
     class="node"
     id="node11"
     transform="translate(4,636)">
    <title
       id="title3361">FIX_2</title>
    <polygon
       style="fill:#a52a2a;stroke:#000000"
       id="polygon3363"
       points="272,-7.10543e-15 328,0 328,-36 328,-36 272,-36 " />
    <text
       style="font-size:14px;text-anchor:middle;font-family:'Times Roman,serif'"
       id="text3365"
       font-size="14.00"
       y="-14.4"
       x="300">FIX_2</text>
  </g>
  <g
     class="edge"
     id="edge8"
     transform="translate(4,636)">
    <title
       id="title3368">FIX_2-&gt;KFIX</title>
    <path
       style="fill:none;stroke:#000000;stroke-dasharray:5, 2"
       inkscape:connector-curvature="0"
       id="path3370"
       d="M 296.585,-36.2725 C 290.101,-70.9717 275.967,-146.611 268.263,-187.837" />
    <polygon
       style="fill:#000000;stroke:#000000"
       id="polygon3372"
       points="271.684,-188.585 264.803,-187.299 264.803,-187.299 266.406,-197.772 " />
    <text
       style="font-size:14px;text-anchor:middle;font-family:'Times Roman,serif'"
       id="text3374"
       font-size="14.00"
       y="-113.4"
       x="287">2</text>
    <polyline
       style="fill:none;stroke:#000000"
       id="polyline3376"
       points="292,-108 282,-108 281.698,-115.94 " />
  </g>
</svg>
