<?xml version="1.0" encoding="UTF-8" standalone="no"?>
<!-- Generated by graphviz version 2.26.3 (20100126.1600)
 -->

<!-- Title: _anonymous_0 Pages: 1 -->

<svg
   xmlns:dc="http://purl.org/dc/elements/1.1/"
   xmlns:cc="http://creativecommons.org/ns#"
   xmlns:rdf="http://www.w3.org/1999/02/22-rdf-syntax-ns#"
   xmlns:svg="http://www.w3.org/2000/svg"
   xmlns="http://www.w3.org/2000/svg"
   xmlns:sodipodi="http://sodipodi.sourceforge.net/DTD/sodipodi-0.dtd"
   xmlns:inkscape="http://www.inkscape.org/namespaces/inkscape"
   width="501pt"
   height="242pt"
   viewBox="0.00 0.00 501.00 242.00"
   id="svg2"
   version="1.1"
   inkscape:version="0.48.0 r9654"
   sodipodi:docname="bloc.svg">
  <metadata
     id="metadata156">
    <rdf:RDF>
      <cc:Work
         rdf:about="">
        <dc:format>image/svg+xml</dc:format>
        <dc:type
           rdf:resource="http://purl.org/dc/dcmitype/StillImage" />
      </cc:Work>
    </rdf:RDF>
  </metadata>
  <defs
     id="defs154" />
  <sodipodi:namedview
     pagecolor="#ffffff"
     bordercolor="#666666"
     borderopacity="1"
     objecttolerance="10"
     gridtolerance="10"
     guidetolerance="10"
     inkscape:pageopacity="0"
     inkscape:pageshadow="2"
     inkscape:window-width="1440"
     inkscape:window-height="857"
     id="namedview152"
     showgrid="true"
     inkscape:zoom="0.40638722"
     inkscape:cx="-162.15493"
     inkscape:cy="-172.84395"
     inkscape:window-x="0"
     inkscape:window-y="22"
     inkscape:window-maximized="1"
     inkscape:current-layer="svg2">
    <inkscape:grid
       type="xygrid"
       id="grid3624"
       empspacing="5"
       visible="true"
       enabled="true"
       snapvisiblegridlinesonly="true" />
  </sodipodi:namedview>
  <g
     class="node"
     id="node1"
     transform="translate(4,238)">
    <title
       id="title10">KBLOC1</title>
    <polygon
       style="fill:none;stroke:#000000"
       id="polygon12"
       points="81,-198 153,-198 153,-234 153,-234 81,-234 " />
    <text
       style="font-size:14px;text-anchor:middle;font-family:'Times Roman,serif'"
       id="text14"
       font-size="14.00"
       y="-212.39999"
       x="117">KBLOC1</text>
  </g>
  <g
     class="node"
     id="node2"
     transform="translate(4,238)">
    <title
       id="title17">KBLOC2</title>
    <polygon
       style="fill:none;stroke:#000000"
       id="polygon19"
       points="187,-198 259,-198 259,-234 259,-234 187,-234 " />
    <text
       style="font-size:14px;text-anchor:middle;font-family:'Times Roman,serif'"
       id="text21"
       font-size="14.00"
       y="-212.39999"
       x="223">KBLOC2</text>
  </g>
  <g
     class="node"
     id="node3"
     transform="translate(4,238)">
    <title
       id="title24">KBLOC4</title>
    <polygon
       style="fill:none;stroke:#000000"
       id="polygon26"
       points="277,-198 349,-198 349,-234 349,-234 277,-234 " />
    <text
       style="font-size:14px;text-anchor:middle;font-family:'Times Roman,serif'"
       id="text28"
       font-size="14.00"
       y="-212.39999"
       x="313">KBLOC4</text>
  </g>
  <g
     class="node"
     id="node4"
     transform="translate(4,238)">
    <title
       id="title31">PH160x40</title>
    <polygon
       style="fill:none;stroke:#000000"
       id="polygon33"
       points="405,-7.10543e-15 493,0 493,-36 493,-36 405,-36 " />
    <text
       style="font-size:14px;text-anchor:middle;font-family:'Times Roman,serif'"
       id="text35"
       font-size="14.00"
       y="-14.4"
       x="449">PH160x40</text>
  </g>
  <path
     d="M 440.449,201.7275 C 416.312,166.5862 363.333,89.455 335.273,48.604"
     id="path40"
     inkscape:connector-curvature="0"
     style="fill:none;stroke:#000000" />
  <polygon
     points="328.297,-187.547 325.52,-197.772 334.067,-191.51 328.297,-187.547 "
     id="polygon42"
     style="fill:#000000;stroke:#000000"
     transform="translate(4,238)" />
  <text
     x="402.39999"
     y="128.39999"
     font-size="14.00"
     id="text44"
     style="font-size:14px;text-anchor:middle;font-family:'Times Roman,serif'">2</text>
  <path
     transform="translate(4,238)"
     style="fill:none;stroke:#000000"
     d="m 404,-108 -12,0 -6.639,-2.651"
     id="polyline46"
     inkscape:connector-curvature="0"
     sodipodi:nodetypes="ccc" />
  <g
     class="node"
     id="node5"
     transform="translate(4,238)">
    <title
       id="title49">PH080x40</title>
    <polygon
       style="fill:none;stroke:#000000"
       id="polygon51"
       points="299,-7.10543e-15 387,0 387,-36 387,-36 299,-36 " />
    <text
       style="font-size:14px;text-anchor:middle;font-family:'Times Roman,serif'"
       id="text53"
       font-size="14.00"
       y="-14.4"
       x="343">PH080x40</text>
  </g>
  <path
     d="M 341.596,201.9844 C 334.532,179.8588 320.921,141.6223 303,112 288.771,88.48 268.532,64.848 252.517,47.704"
     id="path58"
     inkscape:connector-curvature="0"
     style="fill:none;stroke:#000000" />
  <polygon
     points="245.842,-188.031 241.493,-197.692 250.917,-192.851 245.842,-188.031 "
     id="polygon60"
     style="fill:#000000;stroke:#000000"
     transform="translate(4,238)" />
  <text
     x="325.60001"
     y="128.39999"
     font-size="14.00"
     id="text62"
     style="font-size:14px;text-anchor:middle;font-family:'Times Roman,serif'">2</text>
  <path
     transform="translate(4,238)"
     style="fill:none;stroke:#000000"
     d="m 328,-108 -13.6,0 -8.297,-5.43"
     id="polyline64"
     inkscape:connector-curvature="0"
     sodipodi:nodetypes="ccc" />
  <g
     class="node"
     id="node6"
     transform="translate(4,238)">
    <title
       id="title67">PH040x40</title>
    <polygon
       style="fill:none;stroke:#000000"
       id="polygon69"
       points="8.24688e-15,-7.10543e-15 88,0 88,-36 88,-36 2.93238e-14,-36 " />
    <text
       style="font-size:14px;text-anchor:middle;font-family:'Times Roman,serif'"
       id="text71"
       font-size="14.00"
       y="-14.4"
       x="44">PH040x40</text>
  </g>
  <g
     class="edge"
     id="edge4"
     transform="translate(4,238)">
    <title
       id="title74">PH040x40-&gt;KBLOC1</title>
    <path
       style="fill:none;stroke:#000000"
       inkscape:connector-curvature="0"
       id="path76"
       d="M 50.7368,-36.2725 C 63.5843,-71.1191 91.6542,-147.254 106.81,-188.361" />
    <polygon
       style="fill:#000000;stroke:#000000"
       id="polygon78"
       points="110.104,-187.178 103.536,-189.6 103.536,-189.6 110.279,-197.772 " />
    <text
       style="font-size:14px;text-anchor:middle;font-family:'Times Roman,serif'"
       id="text80"
       font-size="14.00"
       y="-113.4"
       x="88">2</text>
    <polyline
       style="fill:none;stroke:#000000"
       id="polyline82"
       points="93,-108 83,-108 81.3647,-119.345 " />
  </g>
  <g
     class="node"
     id="node7"
     transform="translate(4,238)">
    <title
       id="title85">PV038x40</title>
    <polygon
       style="fill:none;stroke:#000000"
       id="polygon87"
       points="106,-7.10543e-15 194,0 194,-36 194,-36 106,-36 " />
    <text
       style="font-size:14px;text-anchor:middle;font-family:'Times Roman,serif'"
       id="text89"
       font-size="14.00"
       y="-14.4"
       x="150">PV038x40</text>
  </g>
  <g
     class="edge"
     id="edge2"
     transform="translate(4,238)">
    <title
       id="title92">PV038x40-&gt;KBLOC1</title>
    <path
       style="fill:none;stroke:#000000"
       inkscape:connector-curvature="0"
       id="path94"
       d="M 141.533,-36.127 C 133.691,-53.9645 122.573,-82.2006 118,-108 c -4.732,-26.693 -4.438,-57.681 -3.286,-79.6" />
    <polygon
       style="fill:#000000;stroke:#000000"
       id="polygon96"
       points="118.225,-187.671 111.239,-188.105 111.239,-188.105 115.352,-197.869 " />
    <text
       style="font-size:14px;text-anchor:middle;font-family:'Times Roman,serif'"
       id="text98"
       font-size="14.00"
       y="-113.4"
       x="123">2</text>
    <polyline
       style="fill:none;stroke:#000000"
       id="polyline100"
       points="128,-108 118,-108 118.003,-107.981 " />
  </g>
  <path
     d="M 160.737,201.7275 C 173.584,166.8809 201.654,90.746 216.81,49.639"
     id="path105"
     inkscape:connector-curvature="0"
     style="fill:none;stroke:#000000" />
  <polygon
     points="209.536,-189.6 216.279,-197.772 216.104,-187.178 209.536,-189.6 "
     id="polygon107"
     style="fill:#000000;stroke:#000000"
     transform="translate(4,238)" />
  <text
     x="181.60001"
     y="67.599998"
     font-size="14.00"
     id="text109"
     style="font-size:14px;text-anchor:middle;font-family:'Times Roman,serif'">2 à 3</text>
  <path
     transform="translate(4,238)"
     style="fill:none;stroke:#000000"
     d="m 160,-168 36,0 0,24"
     id="polyline111"
     inkscape:connector-curvature="0"
     sodipodi:nodetypes="ccc" />
  <path
     d="M 170.091,201.9448 C 186.044,183.9257 211.062,155.346 232,130 254.672,102.554 279.788,70.417 296.799,48.378"
     id="path116"
     inkscape:connector-curvature="0"
     style="fill:none;stroke:#000000" />
  <polygon
     points="290.245,-192.042 299.12,-197.83 295.791,-187.771 290.245,-192.042 "
     id="polygon118"
     style="fill:#000000;stroke:#000000"
     transform="translate(4,238)" />
  <text
     x="280"
     y="118"
     font-size="14.00"
     id="text120"
     style="font-size:14px;text-anchor:middle;font-family:'Times Roman,serif'">2 à 5</text>
  <path
     transform="translate(16.004,229.995)"
     style="fill:none;stroke:#000000"
     d="m 276.4,-108 -36,0 -18.004,0.005"
     id="polyline122"
     inkscape:connector-curvature="0"
     sodipodi:nodetypes="ccc" />
  <g
     class="node"
     id="node8"
     transform="translate(4,238)">
    <title
       id="title125">KFIX</title>
    <polygon
       style="fill:none;stroke:#000000"
       id="polygon127"
       points="212,-7.10543e-15 266,0 266,-36 266,-36 212,-36 " />
    <text
       style="font-size:14px;text-anchor:middle;font-family:'Times Roman,serif'"
       id="text129"
       font-size="14.00"
       y="-14.4"
       x="239">KFIX</text>
  </g>
  <g
     class="edge"
     id="edge6"
     transform="translate(4,238)">
    <title
       id="title132">KFIX-&gt;KBLOC1</title>
    <path
       style="fill:none;stroke:#000000"
       inkscape:connector-curvature="0"
       id="path134"
       d="M 231.648,-36.1954 C 222.454,-58.1714 205.638,-95.9306 187,-126 c -14.071,-22.7 -32.754,-46.472 -47.279,-63.88" />
    <polygon
       style="fill:#000000;stroke:#000000"
       id="polygon136"
       points="142.089,-192.501 136.741,-187.984 136.741,-187.984 132.963,-197.882 " />
  </g>
  <g
     class="edge"
     id="edge12"
     transform="translate(4,238)">
    <title
       id="title139">KFIX-&gt;KBLOC2</title>
    <path
       style="fill:none;stroke:#000000"
       inkscape:connector-curvature="0"
       id="path141"
       d="M 237.523,-36.2725 C 234.725,-70.8981 228.633,-146.29 225.297,-187.574" />
    <polygon
       style="fill:#000000;stroke:#000000"
       id="polygon143"
       points="228.767,-188.086 221.79,-187.522 221.79,-187.522 224.473,-197.772 " />
  </g>
  <g
     class="edge"
     id="edge18"
     transform="translate(4,238)">
    <title
       id="title146">KFIX-&gt;KBLOC4</title>
    <path
       style="fill:none;stroke:#000000"
       inkscape:connector-curvature="0"
       id="path148"
       d="M 253.641,-36.1106 C 266.886,-53.4864 285.827,-81.0007 296,-108 c 9.778,-25.949 13.932,-57.454 15.697,-79.722" />
    <polygon
       style="fill:#000000;stroke:#000000"
       id="polygon150"
       points="315.199,-187.633 308.215,-188.108 308.215,-188.108 312.385,-197.847 " />
  </g>
</svg>
