<?xml version="1.0" encoding="UTF-8" standalone="no"?>
<!-- Generated by graphviz version 2.26.3 (20100126.1600)
 -->

<!-- Title: _anonymous_0 Pages: 1 -->

<svg
   xmlns:dc="http://purl.org/dc/elements/1.1/"
   xmlns:cc="http://creativecommons.org/ns#"
   xmlns:rdf="http://www.w3.org/1999/02/22-rdf-syntax-ns#"
   xmlns:svg="http://www.w3.org/2000/svg"
   xmlns="http://www.w3.org/2000/svg"
   xmlns:sodipodi="http://sodipodi.sourceforge.net/DTD/sodipodi-0.dtd"
   xmlns:inkscape="http://www.inkscape.org/namespaces/inkscape"
   width="523pt"
   height="424pt"
   viewBox="0.00 0.00 523.00 424.00"
   id="svg3215"
   version="1.1"
   inkscape:version="0.48.0 r9654"
   sodipodi:docname="fixations.svg">
  <metadata
     id="metadata3353">
    <rdf:RDF>
      <cc:Work
         rdf:about="">
        <dc:format>image/svg+xml</dc:format>
        <dc:type
           rdf:resource="http://purl.org/dc/dcmitype/StillImage" />
      </cc:Work>
    </rdf:RDF>
  </metadata>
  <defs
     id="defs3351" />
  <sodipodi:namedview
     pagecolor="#ffffff"
     bordercolor="#666666"
     borderopacity="1"
     objecttolerance="10"
     gridtolerance="10"
     guidetolerance="10"
     inkscape:pageopacity="0"
     inkscape:pageshadow="2"
     inkscape:window-width="1440"
     inkscape:window-height="857"
     id="namedview3349"
     showgrid="true"
     inkscape:zoom="1"
     inkscape:cx="326.09779"
     inkscape:cy="315.58852"
     inkscape:window-x="0"
     inkscape:window-y="22"
     inkscape:window-maximized="1"
     inkscape:current-layer="svg3215">
    <inkscape:grid
       type="xygrid"
       id="grid3465"
       empspacing="5"
       visible="true"
       enabled="true"
       snapvisiblegridlinesonly="true" />
  </sodipodi:namedview>
  <g
     class="node"
     id="node1"
     transform="translate(4,420)">
    <title
       id="title3223">KFIX</title>
    <polygon
       style="fill:none;stroke:#000000"
       id="polygon3225"
       points="217,-380 271,-380 271,-416 271,-416 217,-416 " />
    <text
       style="font-size:14px;text-anchor:middle;font-family:'Times Roman,serif'"
       id="text3227"
       font-size="14.00"
       y="-394.39999"
       x="244">KFIX</text>
  </g>
  <g
     class="node"
     id="node2"
     transform="translate(4,420)">
    <title
       id="title3230">fixationsAppoint</title>
    <polygon
       style="fill:none;stroke:#000000"
       id="polygon3232"
       points="47,-182 213,-182 213,-218 213,-218 47,-218 " />
    <text
       style="font-size:14px;text-anchor:middle;font-family:'Times Roman,serif'"
       id="text3234"
       font-size="14.00"
       y="-196.39999"
       x="130">Kit fixations d'appoint</text>
  </g>
  <path
     d="M 144.521,201.728 C 164.669,166.734 208.79,90.101 232.386,49.12"
     id="path3239"
     inkscape:connector-curvature="0"
     style="fill:none;stroke:#000000" />
  <polygon
     points="225.482,-372.852 233.505,-379.772 231.548,-369.359 225.482,-372.852 "
     id="polygon3241"
     style="fill:#000000;stroke:#000000"
     transform="translate(4,420)" />
  <text
     x="228"
     y="124"
     font-size="14.00"
     id="text3243"
     style="font-size:14px;text-anchor:middle;font-family:'Times Roman,serif'">&gt;= 2</text>
  <path
     transform="translate(4,420)"
     style="fill:none;stroke:#000000"
     d="m 244,-292 -40,0 -11.165,-17.135"
     id="polyline3245"
     inkscape:connector-curvature="0"
     sodipodi:nodetypes="ccc" />
  <g
     class="node"
     id="node3"
     transform="translate(4,420)">
    <title
       id="title3248">fixationsStructure</title>
    <polygon
       style="fill:none;stroke:#000000"
       id="polygon3250"
       points="231,-182 419,-182 419,-218 419,-218 231,-218 " />
    <text
       style="font-size:14px;text-anchor:middle;font-family:'Times Roman,serif'"
       id="text3252"
       font-size="14.00"
       y="-196.39999"
       x="325">Kit fixations structurelles</text>
  </g>
  <path
     d="M 321.525,201.728 C 307.269,166.881 276.123,90.746 259.307,49.639"
     id="path3257"
     inkscape:connector-curvature="0"
     style="fill:none;stroke:#000000" />
  <polygon
     points="252.004,-369.191 251.457,-379.772 258.483,-371.841 252.004,-369.191 "
     id="polygon3259"
     style="fill:#000000;stroke:#000000"
     transform="translate(4,420)" />
  <text
     x="320"
     y="124"
     font-size="14.00"
     id="text3261"
     style="font-size:14px;text-anchor:middle;font-family:'Times Roman,serif'">&gt;= 0</text>
  <path
     sodipodi:nodetypes="ccc"
     inkscape:connector-curvature="0"
     id="polyline3263"
     d="m 338.275,128.07187 -40.29279,-0.20666 -9.53715,-6.99334"
     style="fill:none;stroke:#000000" />
  <g
     class="node"
     id="node4"
     transform="translate(4,420)">
    <title
       id="title3266">FIX_S1</title>
    <polygon
       style="fill:none;stroke:#000000"
       id="polygon3268"
       points="205,-7.10543e-15 269,0 269,-36 269,-36 205,-36 " />
    <text
       style="font-size:14px;text-anchor:middle;font-family:'Times Roman,serif'"
       id="text3270"
       font-size="14.00"
       y="-14.4"
       x="237">FIX_S1</text>
  </g>
  <g
     class="edge"
     id="edge6"
     transform="translate(4,420)">
    <title
       id="title3273">FIX_S1-&gt;fixationsStructure</title>
    <path
       style="fill:none;stroke:#000000;stroke-dasharray:5, 2"
       inkscape:connector-curvature="0"
       id="path3275"
       d="m 245.759,-36.1162 c 15.485,-32.024 47.772,-98.8008 65.992,-136.4818" />
    <polygon
       style="fill:#000000;stroke:#000000"
       id="polygon3277"
       points="315.074,-171.431 308.772,-174.478 308.772,-174.478 316.276,-181.957 " />
  </g>
  <g
     class="node"
     id="node5"
     transform="translate(4,420)">
    <title
       id="title3280">FIX_S2</title>
    <polygon
       style="fill:none;stroke:#000000"
       id="polygon3282"
       points="287,-7.10543e-15 351,0 351,-36 351,-36 287,-36 " />
    <text
       style="font-size:14px;text-anchor:middle;font-family:'Times Roman,serif'"
       id="text3284"
       font-size="14.00"
       y="-14.4"
       x="319">FIX_S2</text>
  </g>
  <g
     class="edge"
     id="edge8"
     transform="translate(4,420)">
    <title
       id="title3287">FIX_S2-&gt;fixationsStructure</title>
    <path
       style="fill:none;stroke:#000000;stroke-dasharray:5, 2"
       inkscape:connector-curvature="0"
       id="path3289"
       d="m 319.597,-36.1162 c 1.047,-31.7515 3.22,-97.6668 4.468,-135.5138" />
    <polygon
       style="fill:#000000;stroke:#000000"
       id="polygon3291"
       points="327.574,-171.847 320.577,-172.078 320.577,-172.078 324.405,-181.957 " />
  </g>
  <g
     class="node"
     id="node6"
     transform="translate(4,420)">
    <title
       id="title3294">FIX_S3</title>
    <polygon
       style="fill:none;stroke:#000000"
       id="polygon3296"
       points="369,-7.10543e-15 433,0 433,-36 433,-36 369,-36 " />
    <text
       style="font-size:14px;text-anchor:middle;font-family:'Times Roman,serif'"
       id="text3298"
       font-size="14.00"
       y="-14.4"
       x="401">FIX_S3</text>
  </g>
  <g
     class="edge"
     id="edge10"
     transform="translate(4,420)">
    <title
       id="title3301">FIX_S3-&gt;fixationsStructure</title>
    <path
       style="fill:none;stroke:#000000;stroke-dasharray:5, 2"
       inkscape:connector-curvature="0"
       id="path3303"
       d="M 393.435,-36.1162 C 380.062,-68.1402 352.177,-134.917 336.443,-172.598" />
    <polygon
       style="fill:#000000;stroke:#000000"
       id="polygon3305"
       points="339.618,-174.078 333.158,-171.381 333.158,-171.381 332.534,-181.957 " />
  </g>
  <g
     class="node"
     id="node7"
     transform="translate(4,420)">
    <title
       id="title3308">FIX_S4</title>
    <polygon
       style="fill:none;stroke:#000000"
       id="polygon3310"
       points="451,-7.10543e-15 515,0 515,-36 515,-36 451,-36 " />
    <text
       style="font-size:14px;text-anchor:middle;font-family:'Times Roman,serif'"
       id="text3312"
       font-size="14.00"
       y="-14.4"
       x="483">FIX_S4</text>
  </g>
  <g
     class="edge"
     id="edge12"
     transform="translate(4,420)">
    <title
       id="title3315">FIX_S4-&gt;fixationsStructure</title>
    <path
       style="fill:none;stroke:#000000;stroke-dasharray:5, 2"
       inkscape:connector-curvature="0"
       id="path3317"
       d="M 467.273,-36.1162 C 439.117,-68.5491 380.016,-136.628 347.548,-174.027" />
    <polygon
       style="fill:#000000;stroke:#000000"
       id="polygon3319"
       points="349.862,-176.7 344.576,-172.111 344.576,-172.111 340.664,-181.957 " />
  </g>
  <g
     class="node"
     id="node8"
     transform="translate(4,420)">
    <title
       id="title3322">FIX_A_RE</title>
    <polygon
       style="fill:none;stroke:#000000"
       id="polygon3324"
       points="8.62851e-15,-7.10543e-15 82,0 82,-36 82,-36 2.96881e-14,-36 " />
    <text
       style="font-size:14px;text-anchor:middle;font-family:'Times Roman,serif'"
       id="text3326"
       font-size="14.00"
       y="-14.4"
       x="41">FIX_A_RE</text>
  </g>
  <g
     class="edge"
     id="edge16"
     transform="translate(4,420)">
    <title
       id="title3329">FIX_A_RE-&gt;fixationsAppoint</title>
    <path
       style="fill:none;stroke:#000000;stroke-dasharray:5, 2"
       inkscape:connector-curvature="0"
       id="path3331"
       d="M 49.859,-36.1162 C 65.5191,-68.1402 98.1737,-134.917 116.6,-172.598" />
    <polygon
       style="fill:#000000;stroke:#000000"
       id="polygon3333"
       points="119.928,-171.436 113.64,-174.511 113.64,-174.511 121.177,-181.957 " />
  </g>
  <g
     class="node"
     id="node9"
     transform="translate(4,420)">
    <title
       id="title3336">FIX_A_ES</title>
    <polygon
       style="fill:none;stroke:#000000"
       id="polygon3338"
       points="100,-7.10543e-15 182,0 182,-36 182,-36 100,-36 " />
    <text
       style="font-size:14px;text-anchor:middle;font-family:'Times Roman,serif'"
       id="text3340"
       font-size="14.00"
       y="-14.4"
       x="141">FIX_A_ES</text>
  </g>
  <g
     class="edge"
     id="edge14"
     transform="translate(4,420)">
    <title
       id="title3343">FIX_A_ES-&gt;fixationsAppoint</title>
    <path
       style="fill:none;stroke:#000000;stroke-dasharray:5, 2"
       inkscape:connector-curvature="0"
       id="path3345"
       d="m 139.905,-36.1162 c -1.919,-31.7515 -5.903,-97.6668 -8.19,-135.5138" />
    <polygon
       style="fill:#000000;stroke:#000000"
       id="polygon3347"
       points="135.188,-172.186 128.2,-171.764 128.2,-171.764 131.091,-181.957 " />
  </g>
</svg>
