<?xml version="1.0" encoding="UTF-8" standalone="no"?>
<!-- Generated by graphviz version 2.26.3 (20100126.1600)
 -->

<!-- Title: _anonymous_0 Pages: 1 -->

<svg
   xmlns:dc="http://purl.org/dc/elements/1.1/"
   xmlns:cc="http://creativecommons.org/ns#"
   xmlns:rdf="http://www.w3.org/1999/02/22-rdf-syntax-ns#"
   xmlns:svg="http://www.w3.org/2000/svg"
   xmlns="http://www.w3.org/2000/svg"
   xmlns:sodipodi="http://sodipodi.sourceforge.net/DTD/sodipodi-0.dtd"
   xmlns:inkscape="http://www.inkscape.org/namespaces/inkscape"
   width="707.5"
   height="532.5"
   viewBox="0 0 566 426"
   id="svg3273"
   version="1.1"
   inkscape:version="0.48.0 r9654"
   sodipodi:docname="planches.svg">
  <metadata
     id="metadata3482">
    <rdf:RDF>
      <cc:Work
         rdf:about="">
        <dc:format>image/svg+xml</dc:format>
        <dc:type
           rdf:resource="http://purl.org/dc/dcmitype/StillImage" />
      </cc:Work>
    </rdf:RDF>
  </metadata>
  <defs
     id="defs3480" />
  <sodipodi:namedview
     pagecolor="#ffffff"
     bordercolor="#ff0000"
     borderopacity="1"
     objecttolerance="10"
     gridtolerance="10"
     guidetolerance="10"
     inkscape:pageopacity="0"
     inkscape:pageshadow="2"
     inkscape:window-width="1440"
     inkscape:window-height="857"
     id="namedview3478"
     showgrid="true"
     inkscape:zoom="0.72578507"
     inkscape:cx="377.83598"
     inkscape:cy="262.7489"
     inkscape:window-x="0"
     inkscape:window-y="22"
     inkscape:window-maximized="1"
     inkscape:current-layer="svg3273"
     fit-margin-top="0"
     fit-margin-left="0"
     fit-margin-right="0"
     fit-margin-bottom="0">
    <inkscape:grid
       type="xygrid"
       id="grid3606"
       empspacing="5"
       visible="true"
       enabled="true"
       snapvisiblegridlinesonly="true" />
  </sodipodi:namedview>
  <g
     class="node"
     id="node1"
     transform="translate(4.5,420.5)">
    <title
       id="title3281">PH160x40</title>
    <polygon
       style="fill:none;stroke:#000000"
       id="polygon3283"
       points="267,-380 355,-380 355,-416 355,-416 267,-416 " />
    <text
       style="font-size:14px;text-anchor:middle;font-family:'Times Roman,serif'"
       id="text3285"
       font-size="14.00"
       y="-394.39999"
       x="311">PH160x40</text>
  </g>
  <g
     class="node"
     id="node2"
     transform="translate(4.5,420.5)">
    <title
       id="title3288">PH080x40</title>
    <polygon
       style="fill:none;stroke:#000000"
       id="polygon3290"
       points="158,-380 246,-380 246,-416 246,-416 158,-416 " />
    <text
       style="font-size:14px;text-anchor:middle;font-family:'Times Roman,serif'"
       id="text3292"
       font-size="14.00"
       y="-394.39999"
       x="202">PH080x40</text>
  </g>
  <g
     class="node"
     id="node3"
     transform="translate(4.5,420.5)">
    <title
       id="title3295">PH040x40</title>
    <polygon
       style="fill:none;stroke:#000000"
       id="polygon3297"
       points="47,-380 135,-380 135,-416 135,-416 47,-416 " />
    <text
       style="font-size:14px;text-anchor:middle;font-family:'Times Roman,serif'"
       id="text3299"
       font-size="14.00"
       y="-394.39999"
       x="91">PH040x40</text>
  </g>
  <g
     class="node"
     id="node4"
     transform="translate(4.5,420.5)">
    <title
       id="title3302">PV038x40</title>
    <polygon
       style="fill:none;stroke:#000000"
       id="polygon3304"
       points="374,-380 462,-380 462,-416 462,-416 374,-416 " />
    <text
       style="font-size:14px;text-anchor:middle;font-family:'Times Roman,serif'"
       id="text3306"
       font-size="14.00"
       y="-394.39999"
       x="418">PV038x40</text>
  </g>
  <g
     class="node"
     id="node5"
     transform="translate(4.5,420.5)">
    <title
       id="title3309">finition</title>
    <polygon
       style="fill:none;stroke:#000000"
       id="polygon3311"
       points="115,-182 183,-182 183,-218 183,-218 115,-218 " />
    <text
       style="font-size:14px;text-anchor:middle;font-family:'Times Roman,serif'"
       id="text3313"
       font-size="14.00"
       y="-196.39999"
       x="149">Finition</text>
  </g>
  <path
     d="M 168.45,202.228 C 197.323,166.939 260.839,89.308 294.152,48.592"
     id="path3318"
     inkscape:connector-curvature="0"
     style="fill:none;stroke:#000000" />
  <polygon
     points="287.045,-374.248 287.045,-374.248 296.086,-379.772 292.462,-369.816 "
     id="polygon3320"
     style="fill:#000000;stroke:#000000"
     transform="translate(4.5,420.5)" />
  <text
     x="215.36765"
     y="88.992653"
     font-size="14.00"
     id="text3322"
     style="font-size:14px;text-anchor:middle;font-family:'Times Roman,serif'">0 ou 1</text>
  <path
     style="fill:none;stroke:#000000"
     d="m 195.36765,92.99265 40,0 8.8,16.8"
     id="polyline3324"
     inkscape:connector-curvature="0"
     sodipodi:nodetypes="ccc" />
  <path
     d="M 157.522,202.46 C 162.392,180.953 171,143.965 179.5,112.5 185.155,91.568 192.216,68.111 197.699,50.393"
     id="path3329"
     inkscape:connector-curvature="0"
     style="fill:none;stroke:#000000" />
  <polygon
     points="189.906,-371.306 189.906,-371.306 196.222,-379.813 196.59,-369.225 "
     id="polygon3331"
     style="fill:#000000;stroke:#000000"
     transform="translate(4.5,420.5)" />
  <text
     x="147.36765"
     y="96.992653"
     font-size="14.00"
     id="text3333"
     style="font-size:14px;text-anchor:middle;font-family:'Times Roman,serif'">0 ou 1</text>
  <path
     style="fill:none;stroke:#000000"
     d="m 127.36765,100.99265 40,0 9.00367,21.89447"
     id="polyline3335"
     inkscape:connector-curvature="0"
     sodipodi:nodetypes="ccc" />
  <path
     d="M 147.651,202.278 C 141.869,184.133 132.847,155.459 125.5,130.5 117.519,103.388 108.938,72.278 103.0064,50.433"
     id="path3340"
     inkscape:connector-curvature="0"
     style="fill:none;stroke:#000000" />
  <polygon
     points="95.0553,-369.422 95.0553,-369.422 95.8217,-379.989 101.812,-371.25 "
     id="polygon3342"
     style="fill:#000000;stroke:#000000"
     transform="translate(4.5,420.5)" />
  <text
     x="57.58823"
     y="132.89412"
     font-size="14.00"
     id="text3344"
     style="font-size:14px;text-anchor:middle;font-family:'Times Roman,serif'">0 ou 1</text>
  <polyline
     points="166,-290 121,-290 121.022,-289.927 "
     id="polyline3346"
     style="fill:none;stroke:#000000"
     transform="translate(-40.705882,420.88971)" />
  <path
     d="M 181.944,202.379 C 209.396,184.662 251.916,156.614 287.5,130.5 324.78,103.142 366.082,69.598 393.064,47.222"
     id="path3351"
     inkscape:connector-curvature="0"
     style="fill:none;stroke:#000000" />
  <polygon
     points="386.532,-376.14 386.532,-376.14 396.458,-379.845 391.008,-370.759 "
     id="polygon3353"
     style="fill:#000000;stroke:#000000"
     transform="translate(4.5,420.5)" />
  <text
     x="355.36765"
     y="128.99265"
     font-size="14.00"
     id="text3355"
     style="font-size:14px;text-anchor:middle;font-family:'Times Roman,serif'">0 ou 1</text>
  <path
     sodipodi:nodetypes="ccc"
     inkscape:connector-curvature="0"
     id="polyline3357"
     d="m 379.36765,132.99265 -48,0 -8.8,-28.8"
     style="fill:none;stroke:#000000" />
  <g
     class="node"
     id="node6"
     transform="translate(4.5,420.5)">
    <title
       id="title3360">VERM50</title>
    <polygon
       style="fill:none;stroke:#000000"
       id="polygon3362"
       points="6.06806e-15,-7.10543e-15 74,0 74,-36 74,-36 2.00881e-14,-36 " />
    <text
       style="font-size:14px;text-anchor:middle;font-family:'Times Roman,serif'"
       id="text3364"
       font-size="14.00"
       y="-14.4"
       x="37">VERM50</text>
  </g>
  <g
     class="edge"
     id="edge18"
     transform="translate(4.5,420.5)">
    <title
       id="title3367">VERM50-&gt;finition</title>
    <path
       style="fill:none;stroke:#000000;stroke-dasharray:5, 2"
       inkscape:connector-curvature="0"
       id="path3369"
       d="M 48.1485,-36.1162 C 67.9394,-68.2765 109.299,-135.486 132.432,-173.077" />
    <polygon
       style="fill:#000000;stroke:#000000"
       id="polygon3371"
       points="137.897,-181.957 135.636,-171.606 129.675,-175.275 129.675,-175.275 " />
  </g>
  <g
     class="node"
     id="node7"
     transform="translate(4.5,420.5)">
    <title
       id="title3374">VERB50</title>
    <polygon
       style="fill:none;stroke:#000000"
       id="polygon3376"
       points="92,-7.10543e-15 164,0 164,-36 164,-36 92,-36 " />
    <text
       style="font-size:14px;text-anchor:middle;font-family:'Times Roman,serif'"
       id="text3378"
       font-size="14.00"
       y="-14.4"
       x="128">VERB50</text>
  </g>
  <g
     class="edge"
     id="edge20"
     transform="translate(4.5,420.5)">
    <title
       id="title3381">VERB50-&gt;finition</title>
    <path
       style="fill:none;stroke:#000000;stroke-dasharray:5, 2"
       inkscape:connector-curvature="0"
       id="path3383"
       d="m 130.09,-36.1162 c 3.664,-31.7515 11.27,-97.6668 15.636,-135.5138" />
    <polygon
       style="fill:#000000;stroke:#000000"
       id="polygon3385"
       points="146.918,-181.957 149.249,-171.622 142.295,-172.424 142.295,-172.424 " />
  </g>
  <g
     class="node"
     id="node8"
     transform="translate(4.5,420.5)">
    <title
       id="title3388">PEINT50</title>
    <polygon
       style="fill:none;stroke:#000000"
       id="polygon3390"
       points="182,-7.10543e-15 258,0 258,-36 258,-36 182,-36 " />
    <text
       style="font-size:14px;text-anchor:middle;font-family:'Times Roman,serif'"
       id="text3392"
       font-size="14.00"
       y="-14.4"
       x="220">PEINT50</text>
  </g>
  <g
     class="edge"
     id="edge22"
     transform="translate(4.5,420.5)">
    <title
       id="title3395">PEINT50-&gt;finition</title>
    <path
       style="fill:none;stroke:#000000;stroke-dasharray:5, 2"
       inkscape:connector-curvature="0"
       id="path3397"
       d="M 212.933,-36.1162 C 200.44,-68.1402 174.39,-134.917 159.69,-172.598" />
    <polygon
       style="fill:#000000;stroke:#000000"
       id="polygon3399"
       points="156.039,-181.957 162.934,-173.913 156.412,-171.369 156.412,-171.369 " />
  </g>
  <g
     class="node"
     id="node9"
     transform="translate(4.5,420.5)">
    <title
       id="title3402">mp</title>
    <polygon
       style="fill:none;stroke:#000000"
       id="polygon3404"
       points="328,-182 462,-182 462,-218 462,-218 328,-218 " />
    <text
       style="font-size:14px;text-anchor:middle;font-family:'Times Roman,serif'"
       id="text3406"
       font-size="14.00"
       y="-196.39999"
       x="395">Matière première</text>
  </g>
  <g
     class="edge"
     id="edge14"
     transform="translate(4.5,420.5)">
    <title
       id="title3409">mp-&gt;PH160x40</title>
    <path
       style="fill:none;stroke:#000000"
       inkscape:connector-curvature="0"
       id="path3411"
       d="m 395.509,-218.332 c -0.026,-22.11 -2.141,-60.001 -14.509,-89.668 -10.08,-24.18 -28.446,-47.412 -43.837,-64.215" />
    <polygon
       style="fill:#000000;stroke:#000000"
       id="polygon3413"
       points="329.896,-379.923 339.303,-375.048 334.21,-370.246 334.21,-370.246 " />
  </g>
  <g
     class="edge"
     id="edge10"
     transform="translate(4.5,420.5)">
    <title
       id="title3416">mp-&gt;PH080x40</title>
    <path
       style="fill:none;stroke:#000000"
       inkscape:connector-curvature="0"
       id="path3418"
       d="M 377.189,-218.272 C 342.648,-253.708 266.488,-331.841 226.938,-372.416" />
    <polygon
       style="fill:#000000;stroke:#000000"
       id="polygon3420"
       points="219.768,-379.772 229.254,-375.054 224.242,-370.168 224.242,-370.168 " />
  </g>
  <g
     class="edge"
     id="edge6"
     transform="translate(4.5,420.5)">
    <title
       id="title3423">mp-&gt;PH040x40</title>
    <path
       style="fill:none;stroke:#000000"
       inkscape:connector-curvature="0"
       id="path3425"
       d="M 355.117,-218.015 C 319.402,-234.804 266.161,-261.481 223,-290 c -38.507,-25.444 -79.059,-59.943 -104.89,-83.037" />
    <polygon
       style="fill:#000000;stroke:#000000"
       id="polygon3427"
       points="110.585,-379.816 120.357,-375.723 115.673,-370.522 115.673,-370.522 " />
  </g>
  <g
     class="edge"
     id="edge2"
     transform="translate(4.5,420.5)">
    <title
       id="title3430">mp-&gt;PV038x40</title>
    <path
       style="fill:none;stroke:#000000"
       inkscape:connector-curvature="0"
       id="path3432"
       d="m 397.292,-218.265 c 2.267,-18.178 5.808,-46.875 8.708,-71.735 3.142,-26.93 6.538,-57.662 8.913,-79.439" />
    <polygon
       style="fill:#000000;stroke:#000000"
       id="polygon3434"
       points="416.023,-379.648 418.421,-369.328 411.462,-370.085 411.462,-370.085 " />
  </g>
  <g
     class="node"
     id="node10"
     transform="translate(4.5,420.5)">
    <title
       id="title3437">HETRE10</title>
    <polygon
       style="fill:none;stroke:#000000"
       id="polygon3439"
       points="276,-7.10543e-15 358,0 358,-36 358,-36 276,-36 " />
    <text
       style="font-size:14px;text-anchor:middle;font-family:'Times Roman,serif'"
       id="text3441"
       font-size="14.00"
       y="-14.4"
       x="317">HETRE10</text>
  </g>
  <g
     class="edge"
     id="edge24"
     transform="translate(4.5,420.5)">
    <title
       id="title3444">HETRE10-&gt;mp</title>
    <path
       style="fill:none;stroke:#000000;stroke-dasharray:5, 2"
       inkscape:connector-curvature="0"
       id="path3446"
       d="m 324.764,-36.1162 c 13.725,-32.024 42.343,-98.8008 58.492,-136.4818" />
    <polygon
       style="fill:#000000;stroke:#000000"
       id="polygon3448"
       points="387.267,-181.957 386.545,-171.387 380.111,-174.144 380.111,-174.144 " />
  </g>
  <g
     class="node"
     id="node11"
     transform="translate(4.5,420.5)">
    <title
       id="title3451">FRENE10</title>
    <polygon
       style="fill:none;stroke:#000000"
       id="polygon3453"
       points="376,-7.10543e-15 456,0 456,-36 456,-36 376,-36 " />
    <text
       style="font-size:14px;text-anchor:middle;font-family:'Times Roman,serif'"
       id="text3455"
       font-size="14.00"
       y="-14.4"
       x="416">FRENE10</text>
  </g>
  <g
     class="edge"
     id="edge26"
     transform="translate(4.5,420.5)">
    <title
       id="title3458">FRENE10-&gt;mp</title>
    <path
       style="fill:none;stroke:#000000;stroke-dasharray:5, 2"
       inkscape:connector-curvature="0"
       id="path3460"
       d="M 413.91,-36.1162 C 410.246,-67.8677 402.64,-133.783 398.274,-171.63" />
    <polygon
       style="fill:#000000;stroke:#000000"
       id="polygon3462"
       points="397.082,-181.957 401.705,-172.424 394.751,-171.622 394.751,-171.622 " />
  </g>
  <g
     class="node"
     id="node12"
     transform="translate(4.5,420.5)">
    <title
       id="title3465">CHENE10</title>
    <polygon
       style="fill:none;stroke:#000000"
       id="polygon3467"
       points="474,-7.10543e-15 556,0 556,-36 556,-36 474,-36 " />
    <text
       style="font-size:14px;text-anchor:middle;font-family:'Times Roman,serif'"
       id="text3469"
       font-size="14.00"
       y="-14.4"
       x="515">CHENE10</text>
  </g>
  <g
     class="edge"
     id="edge28"
     transform="translate(4.5,420.5)">
    <title
       id="title3472">CHENE10-&gt;mp</title>
    <path
       style="fill:none;stroke:#000000;stroke-dasharray:5, 2"
       inkscape:connector-curvature="0"
       id="path3474"
       d="M 503.055,-36.1162 C 481.761,-68.4128 437.161,-136.056 412.437,-173.554" />
    <polygon
       style="fill:#000000;stroke:#000000"
       id="polygon3476"
       points="406.896,-181.957 415.323,-175.535 409.479,-171.682 409.479,-171.682 " />
  </g>
</svg>
