<?xml version="1.0" encoding="UTF-8" standalone="no"?>
<!-- Generated by graphviz version 2.26.3 (20100126.1600)
 -->

<!-- Title: tasks Pages: 1 -->

<svg
   xmlns:dc="http://purl.org/dc/elements/1.1/"
   xmlns:cc="http://creativecommons.org/ns#"
   xmlns:rdf="http://www.w3.org/1999/02/22-rdf-syntax-ns#"
   xmlns:svg="http://www.w3.org/2000/svg"
   xmlns="http://www.w3.org/2000/svg"
   xmlns:sodipodi="http://sodipodi.sourceforge.net/DTD/sodipodi-0.dtd"
   xmlns:inkscape="http://www.inkscape.org/namespaces/inkscape"
   width="2044pt"
   height="564pt"
   viewBox="0.00 0.00 2044.00 564.00"
   id="svg2"
   version="1.1"
   inkscape:version="0.48.0 r9654"
   sodipodi:docname="tasks.svg">
  <metadata
     id="metadata314">
    <rdf:RDF>
      <cc:Work
         rdf:about="">
        <dc:format>image/svg+xml</dc:format>
        <dc:type
           rdf:resource="http://purl.org/dc/dcmitype/StillImage" />
      </cc:Work>
    </rdf:RDF>
  </metadata>
  <defs
     id="defs312">
    <marker
       inkscape:stockid="Arrow1Mend"
       orient="auto"
       refY="0.0"
       refX="0.0"
       id="Arrow1Mend"
       style="overflow:visible;">
      <path
         id="path4254"
         d="M 0.0,0.0 L 5.0,-5.0 L -12.5,0.0 L 5.0,5.0 L 0.0,0.0 z "
         style="fill-rule:evenodd;stroke:#000000;stroke-width:1.0pt;marker-start:none;"
         transform="scale(0.4) rotate(180) translate(10,0)" />
    </marker>
    <marker
       inkscape:stockid="Arrow1Lstart"
       orient="auto"
       refY="0.0"
       refX="0.0"
       id="Arrow1Lstart"
       style="overflow:visible">
      <path
         id="path4245"
         d="M 0.0,0.0 L 5.0,-5.0 L -12.5,0.0 L 5.0,5.0 L 0.0,0.0 z "
         style="fill-rule:evenodd;stroke:#000000;stroke-width:1.0pt;marker-start:none"
         transform="scale(0.8) translate(12.5,0)" />
    </marker>
  </defs>
  <sodipodi:namedview
     pagecolor="#ffffff"
     bordercolor="#666666"
     borderopacity="1"
     objecttolerance="10"
     gridtolerance="10"
     guidetolerance="10"
     inkscape:pageopacity="0"
     inkscape:pageshadow="2"
     inkscape:window-width="1440"
     inkscape:window-height="857"
     id="namedview310"
     showgrid="false"
     inkscape:zoom="1.1269428"
     inkscape:cx="1665.8457"
     inkscape:cy="259.16166"
     inkscape:window-x="0"
     inkscape:window-y="22"
     inkscape:window-maximized="1"
     inkscape:current-layer="svg2" />
  <g
     class="node"
     id="node1"
     transform="translate(4,560)">
    <title
       id="title10">nomFamilleProd</title>
    <polygon
       style="fill:#00ff00;stroke:#000000"
       id="polygon12"
       points="268.5,-445 -0.5,-445 -0.5,-445 -0.5,-481 268.5,-481 " />
    <text
       style="font-size:14px;text-anchor:middle;font-family:'Times Roman,serif'"
       id="text14"
       font-size="14.00"
       y="-459.39999"
       x="134">Nomenclature familles de production</text>
  </g>
  <g
     class="node"
     id="node2"
     transform="translate(4,560)">
    <title
       id="title17">nom</title>
    <polygon
       style="fill:none;stroke:#000000"
       id="polygon19"
       points="682.5,-555 682.5,-519 569.5,-519 569.5,-519 569.5,-555 " />
    <text
       style="font-size:14px;text-anchor:middle;font-family:'Times Roman,serif'"
       id="text21"
       font-size="14.00"
       y="-533.40002"
       x="626">Nomenclature</text>
  </g>
  <g
     class="edge"
     id="edge10"
     transform="translate(4,560)">
    <title
       id="title24">nom-&gt;nomFamilleProd</title>
    <path
       style="fill:none;stroke:#000000"
       inkscape:connector-curvature="0"
       id="path26"
       d="m 569.081,-528.439 c -74.099,11.145 -205.832,30.958 -304.992,45.873" />
    <polygon
       style="fill:#000000;stroke:#000000"
       id="polygon28"
       points="263.36,-485.996 264.401,-479.074 264.401,-479.074 253.992,-481.048 " />
  </g>
  <g
     class="node"
     id="node3"
     transform="translate(4,560)">
    <title
       id="title31">nouvMoyProd</title>
    <polygon
       style="fill:#ff0000;stroke:#000000"
       id="polygon33"
       points="660,-445 286,-445 286,-445 286,-481 660,-481 " />
    <text
       style="font-size:14px;text-anchor:middle;font-family:'Times Roman,serif'"
       id="text35"
       font-size="14.00"
       y="-459.39999"
       x="473">Détermination des nouveaux moyens de production</text>
  </g>
  <g
     class="edge"
     id="edge2"
     transform="translate(4,560)">
    <title
       id="title38">nom-&gt;nouvMoyProd</title>
    <path
       style="fill:none;stroke:#000000"
       inkscape:connector-curvature="0"
       id="path40"
       d="m 588.572,-518.898 c -20.823,10.072 -46.926,22.696 -69.053,33.399" />
    <polygon
       style="fill:#000000;stroke:#000000"
       id="polygon42"
       points="517.785,-488.549 520.833,-482.247 520.833,-482.247 510.306,-481.044 " />
  </g>
  <polygon
     points="677.5,-445 677.5,-445 677.5,-481 880.5,-481 880.5,-445 "
     id="polygon47"
     style="fill:#ff0000;stroke:#000000;fill-opacity:1"
     transform="translate(4,560)" />
  <text
     x="783"
     y="100.60001"
     font-size="14.00"
     id="text49"
     style="font-size:14px;text-anchor:middle;font-family:'Times Roman,serif'">Nomenclature commerciale</text>
  <g
     class="edge"
     id="edge12"
     transform="translate(4,560)">
    <title
       id="title52">nom-&gt;nomCom</title>
    <path
       style="fill:none;stroke:#000000"
       inkscape:connector-curvature="0"
       id="path54"
       d="m 663.428,-518.898 c 20.823,10.072 46.926,22.696 69.053,33.399" />
    <polygon
       style="fill:#000000;stroke:#000000"
       id="polygon56"
       points="731.167,-482.247 734.215,-488.549 734.215,-488.549 741.694,-481.044 " />
  </g>
  <polygon
     points="898,-445 898,-445 898,-481 1128,-481 1128,-445 "
     id="polygon61"
     style="fill:#00ffff;stroke:#000000;fill-opacity:1"
     transform="translate(4,560)" />
  <text
     x="1017"
     y="100.60001"
     font-size="14.00"
     id="text63"
     style="font-size:14px;text-anchor:middle;font-family:'Times Roman,serif'">Liste dénomination des articles</text>
  <g
     class="edge"
     id="edge14"
     transform="translate(4,560)">
    <title
       id="title66">nom-&gt;listDenom</title>
    <path
       style="fill:none;stroke:#000000"
       inkscape:connector-curvature="0"
       id="path68"
       d="m 682.688,-526.161 c 59.152,11.311 153.227,29.3 225.877,43.192" />
    <polygon
       style="fill:#000000;stroke:#000000"
       id="polygon70"
       points="908.189,-479.478 909.504,-486.353 909.504,-486.353 918.668,-481.038 " />
  </g>
  <polygon
     points="764.5,-371 764.5,-371 764.5,-407 939.5,-407 939.5,-371 "
     id="polygon75"
     style="fill:#ffff00;stroke:#000000;fill-opacity:1"
     transform="translate(4,560)" />
  <text
     x="856"
     y="174.60001"
     font-size="14.00"
     id="text77"
     style="font-size:14px;text-anchor:middle;font-family:'Times Roman,serif'">Capacité de production</text>
  <g
     class="edge"
     id="edge3"
     transform="translate(4,560)">
    <title
       id="title80">nouvMoyProd-&gt;capProd</title>
    <path
       style="fill:none;stroke:#000000"
       inkscape:connector-curvature="0"
       id="path82"
       d="m 565.229,-444.992 c 57.271,11.182 130.805,25.54 189.071,36.916" />
    <polygon
       style="fill:#000000;stroke:#000000"
       id="polygon84"
       points="753.768,-404.614 755.109,-411.484 755.109,-411.484 764.253,-406.133 " />
  </g>
  <polygon
     points="669.5,-297 669.5,-297 669.5,-333 1034.5,-333 1034.5,-297 "
     id="polygon89"
     style="fill:#ffff00;fill-opacity:1;stroke:#000000"
     transform="translate(4,560)" />
  <text
     x="856"
     y="248.60001"
     font-size="14.00"
     id="text91"
     style="font-size:14px;text-anchor:middle;fill:#000000;fill-opacity:1;font-family:'Times Roman,serif'">Détermination des méthodes d'approvisionnement</text>
  <g
     class="edge"
     id="edge4"
     transform="translate(4,560)">
    <title
       id="title94">capProd-&gt;methApprod</title>
    <path
       style="fill:none;stroke:#000000"
       inkscape:connector-curvature="0"
       id="path96"
       d="m 852,-370.708 c 0,8.244 0,18.17 0,27.346" />
    <polygon
       style="fill:#000000;stroke:#000000"
       id="polygon98"
       points="848.5,-343.082 855.5,-343.082 855.5,-343.082 852,-333.082 " />
  </g>
  <polygon
     points="1146,-445 1146,-445 1146,-481 1318,-481 1318,-445 "
     id="polygon103"
     style="fill:#ff00ff;fill-opacity:1;stroke:#000000"
     transform="translate(4,560)" />
  <text
     x="1236"
     y="100.60001"
     font-size="14.00"
     id="text105"
     style="font-size:14px;text-anchor:middle;fill:#000000;fill-opacity:1;font-family:'Times Roman,serif'">Choix des fournisseurs</text>
  <g
     class="edge"
     id="edge35"
     transform="translate(4,560)">
    <title
       id="title108">fourn-&gt;capProd</title>
    <path
       style="fill:none;stroke:#000000"
       inkscape:connector-curvature="0"
       id="path110"
       d="m 1145.79,-445.732 c -2.96,0.586 -5.9,1.164 -8.79,1.732 -62.26,12.233 -132.22,25.738 -187.245,36.304" />
    <polygon
       style="fill:#000000;stroke:#000000"
       id="polygon112"
       points="948.82,-411.08 950.14,-404.206 950.14,-404.206 939.66,-405.758 " />
  </g>
  <polygon
     points="1731.5,-371 1731.5,-371 1731.5,-407 2036.5,-407 2036.5,-371 "
     id="polygon117"
     style="fill:#00ffff;stroke:#000000;fill-opacity:1"
     transform="translate(4,560)" />
  <text
     x="1888"
     y="174.60001"
     font-size="14.00"
     id="text119"
     style="font-size:14px;text-anchor:middle;font-family:'Times Roman,serif'">Determination des partenaires logistiques</text>
  <polygon
     points="1766,-297 1766,-297 1766,-333 2002,-333 2002,-297 "
     id="polygon124"
     style="fill:#00ffff;stroke:#000000;fill-opacity:1"
     transform="translate(4,560)" />
  <text
     x="1888"
     y="248.60001"
     font-size="14.00"
     id="text126"
     style="font-size:14px;text-anchor:middle;font-family:'Times Roman,serif'">Lieu de production, de stockage</text>
  <g
     class="edge"
     id="edge16"
     transform="translate(4,560)">
    <title
       id="title129">log-&gt;lieuProd</title>
    <path
       style="fill:none;stroke:#000000"
       inkscape:connector-curvature="0"
       id="path131"
       d="m 1884,-370.708 c 0,8.244 0,18.17 0,27.346" />
    <polygon
       style="fill:#000000;stroke:#000000"
       id="polygon133"
       points="1880.5,-343.082 1887.5,-343.082 1887.5,-343.082 1884,-333.082 " />
  </g>
  <polygon
     points="843.5,-223 843.5,-223 843.5,-259 1148.5,-259 1148.5,-223 "
     id="polygon138"
     style="fill:#00ff00;stroke:#000000;fill-opacity:1"
     transform="translate(4,560)" />
  <text
     x="1000"
     y="322.60001"
     font-size="14.00"
     id="text140"
     style="font-size:14px;text-anchor:middle;font-family:'Times Roman,serif'">Détermination des gammes de production</text>
  <g
     class="edge"
     id="edge5"
     transform="translate(4,560)">
    <title
       id="title143">methApprod-&gt;gamProd</title>
    <path
       style="fill:none;stroke:#000000"
       inkscape:connector-curvature="0"
       id="path145"
       d="m 887.226,-296.898 c 19.439,9.989 43.765,22.491 64.48,33.136" />
    <polygon
       style="fill:#000000;stroke:#000000"
       id="polygon147"
       points="950.144,-260.63 953.344,-266.856 953.344,-266.856 960.638,-259.172 " />
  </g>
  <polygon
     points="1197,-149 1197,-149 1197,-185 1413,-185 1413,-149 "
     id="polygon152"
     style="fill:#ff00ff;fill-opacity:1;stroke:#000000"
     transform="translate(4,560)" />
  <text
     x="1309"
     y="396.60001"
     font-size="14.00"
     id="text154"
     style="font-size:14px;text-anchor:middle;fill:#000000;fill-opacity:1;font-family:'Times Roman,serif'">Plan industriel et commercial</text>
  <g
     class="edge"
     id="edge6"
     transform="translate(4,560)">
    <title
       id="title157">gamProd-&gt;pic</title>
    <path
       style="fill:none;stroke:#000000"
       inkscape:connector-curvature="0"
       id="path159"
       d="m 1071.19,-222.992 c 44.95,10.764 102.18,24.47 148.77,35.627" />
    <polygon
       style="fill:#000000;stroke:#000000"
       id="polygon161"
       points="1219.2,-183.95 1220.83,-190.757 1220.83,-190.757 1229.74,-185.024 " />
  </g>
  <polygon
     points="1217.5,-75 1217.5,-75 1217.5,-111 1392.5,-111 1392.5,-75 "
     id="polygon166"
     style="fill:#ff00ff;stroke:#000000;fill-opacity:1"
     transform="translate(4,560)" />
  <text
     x="1309"
     y="470.60001"
     font-size="14.00"
     id="text168"
     style="font-size:14px;text-anchor:middle;font-family:'Times Roman,serif'">Calcul de charge global</text>
  <g
     class="edge"
     id="edge7"
     transform="translate(4,560)">
    <title
       id="title171">pic-&gt;calcCharge</title>
    <path
       style="fill:none;stroke:#000000"
       inkscape:connector-curvature="0"
       id="path173"
       d="m 1305,-148.708 c 0,8.244 0,18.17 0,27.346" />
    <polygon
       style="fill:#000000;stroke:#000000"
       id="polygon175"
       points="1301.5,-121.082 1308.5,-121.082 1308.5,-121.082 1305,-111.082 " />
  </g>
  <polygon
     points="1147.5,-1 1147.5,-1 1147.5,-37 1462.5,-37 1462.5,-1 "
     id="polygon180"
     style="fill:#ff00ff;stroke:#000000;fill-opacity:1"
     transform="translate(4,560)" />
  <text
     x="1309"
     y="544.59998"
     font-size="14.00"
     id="text182"
     style="font-size:14px;text-anchor:middle;font-family:'Times Roman,serif'">Changement de dimension de l'entreprise ?</text>
  <g
     class="edge"
     id="edge8"
     transform="translate(4,560)">
    <title
       id="title185">calcCharge-&gt;chgtDimension</title>
    <path
       style="fill:none;stroke:#000000"
       inkscape:connector-curvature="0"
       id="path187"
       d="m 1305,-74.7079 c 0,8.2444 0,18.1703 0,27.3457" />
    <polygon
       style="fill:#000000;stroke:#000000"
       id="polygon189"
       points="1301.5,-47.0818 1308.5,-47.0817 1308.5,-47.0817 1305,-37.0817 " />
  </g>
  <polygon
     points="1273,-371 1273,-371 1273,-407 1461,-407 1461,-371 "
     id="polygon194"
     style="fill:none;stroke:#000000"
     transform="translate(4,560)" />
  <text
     x="1371"
     y="174.60001"
     font-size="14.00"
     id="text196"
     style="font-size:14px;text-anchor:middle;font-family:'Times Roman,serif'">Cible visée par le produit</text>
  <g
     class="edge"
     id="edge33"
     transform="translate(4,560)">
    <title
       id="title199">cible-&gt;methApprod</title>
    <path
       style="fill:none;stroke:#000000"
       inkscape:connector-curvature="0"
       id="path201"
       d="m 1272.84,-375.47 c -79.87,11.477 -195.46,28.085 -285.291,40.993" />
    <polygon
       style="fill:#000000;stroke:#000000"
       id="polygon203"
       points="986.958,-337.928 987.954,-330.999 987.954,-330.999 977.558,-333.041 " />
  </g>
  <g
     class="node"
     id="node14"
     transform="translate(4,560)">
    <title
       id="title206">site</title>
    <polygon
       style="fill:#00ff00;stroke:#000000"
       id="polygon208"
       points="1218.5,-297 1051.5,-297 1051.5,-297 1051.5,-333 1218.5,-333 " />
    <text
       style="font-size:14px;text-anchor:middle;font-family:'Times Roman,serif'"
       id="text210"
       font-size="14.00"
       y="-311.39999"
       x="1135">Site Web e-commerce</text>
  </g>
  <g
     class="edge"
     id="edge20"
     transform="translate(4,560)">
    <title
       id="title213">cible-&gt;site</title>
    <path
       style="fill:none;stroke:#000000"
       inkscape:connector-curvature="0"
       id="path215"
       d="m 1310.54,-370.992 c -32.98,10.519 -74.77,23.848 -109.3,34.863" />
    <polygon
       style="fill:#000000;stroke:#000000"
       id="polygon217"
       points="1200.17,-339.462 1202.3,-332.793 1202.3,-332.793 1191.71,-333.089 " />
  </g>
  <g
     class="node"
     id="node15"
     transform="translate(4,560)">
    <title
       id="title220">package</title>
    <polygon
       style="fill:#00ff00;stroke:#000000"
       id="polygon222"
       points="1322,-297 1236,-297 1236,-297 1236,-333 1322,-333 " />
    <text
       style="font-size:14px;text-anchor:middle;font-family:'Times Roman,serif'"
       id="text224"
       font-size="14.00"
       y="-311.39999"
       x="1279">Packaging</text>
  </g>
  <g
     class="edge"
     id="edge22"
     transform="translate(4,560)">
    <title
       id="title227">cible-&gt;package</title>
    <path
       style="fill:none;stroke:#000000"
       inkscape:connector-curvature="0"
       id="path229"
       d="m 1345.25,-370.708 c -11.19,9.409 -24.99,21.009 -37.09,31.183" />
    <polygon
       style="fill:#000000;stroke:#000000"
       id="polygon231"
       points="1305.9,-342.197 1310.41,-336.839 1310.41,-336.839 1300.5,-333.082 " />
  </g>
  <polygon
     points="1339.5,-297 1339.5,-297 1339.5,-333 1572.5,-333 1572.5,-297 "
     id="polygon236"
     style="fill:#00ff00;fill-opacity:1;stroke:#000000"
     transform="translate(4,560)" />
  <text
     x="1460"
     y="248.60001"
     font-size="14.00"
     id="text238"
     style="font-size:14px;text-anchor:middle;fill:#000000;fill-opacity:1;font-family:'Times Roman,serif'">Description détaillée du produit</text>
  <g
     class="edge"
     id="edge25"
     transform="translate(4,560)">
    <title
       id="title241">cible-&gt;descDet</title>
    <path
       style="fill:none;stroke:#000000"
       inkscape:connector-curvature="0"
       id="path243"
       d="m 1389,-370.708 c 11.32,9.409 25.27,21.009 37.5,31.183" />
    <polygon
       style="fill:#000000;stroke:#000000"
       id="polygon245"
       points="1424.33,-336.784 1428.8,-342.166 1428.8,-342.166 1434.25,-333.082 " />
  </g>
  <polygon
     points="1590,-297 1590,-297 1590,-333 1748,-333 1748,-297 "
     id="polygon250"
     style="fill:#00ff00;stroke:#000000;fill-opacity:1"
     transform="translate(4,560)" />
  <text
     x="1673"
     y="248.60001"
     font-size="14.00"
     id="text252"
     style="font-size:14px;text-anchor:middle;font-family:'Times Roman,serif'">Étude concurentielle</text>
  <g
     class="edge"
     id="edge28"
     transform="translate(4,560)">
    <title
       id="title255">cible-&gt;etudeConc</title>
    <path
       style="fill:#00ff00;stroke:#000000"
       inkscape:connector-curvature="0"
       id="path257"
       d="m 1440.49,-370.992 c 43.84,10.741 99.63,24.413 145.11,35.557" />
    <polygon
       style="fill:#000000;stroke:#000000"
       id="polygon259"
       points="1584.9,-332.005 1586.56,-338.804 1586.56,-338.804 1595.44,-333.024 " />
  </g>
  <g
     class="edge"
     id="edge18"
     transform="translate(4,560)">
    <title
       id="title262">cible-&gt;lieuProd</title>
    <path
       style="fill:none;stroke:#000000"
       inkscape:connector-curvature="0"
       id="path264"
       d="m 1461.2,-375.941 c 76.62,10.674 187.83,26.286 294.52,41.761" />
    <polygon
       style="fill:#000000;stroke:#000000"
       id="polygon266"
       points="1755.3,-330.705 1756.31,-337.632 1756.31,-337.632 1765.7,-332.731 " />
  </g>
  <polygon
     points="1255,-223 1255,-259 1411,-259 1411,-223 1255,-223 "
     id="polygon271"
     style="fill:#00ffff;fill-opacity:1;stroke:#000000"
     transform="translate(4,560)" />
  <text
     x="1337"
     y="322.60001"
     font-size="14.00"
     id="text273"
     style="font-size:14px;text-anchor:middle;font-family:'Times Roman,serif'">Vues prévisionnelles</text>
  <g
     class="edge"
     id="edge23"
     transform="translate(4,560)">
    <title
       id="title276">package-&gt;mockups</title>
    <path
       style="fill:none;stroke:#000000"
       inkscape:connector-curvature="0"
       id="path278"
       d="m 1292.35,-296.708 c 6.47,8.872 14.37,19.691 21.47,29.426" />
    <polygon
       style="fill:#000000;stroke:#000000"
       id="polygon280"
       points="1311.08,-265.096 1316.74,-269.223 1316.74,-269.223 1319.81,-259.082 " />
  </g>
  <g
     class="edge"
     id="edge26"
     transform="translate(4,560)">
    <title
       id="title283">descDet-&gt;mockups</title>
    <path
       style="fill:none;stroke:#000000"
       inkscape:connector-curvature="0"
       id="path285"
       d="m 1425.91,-296.898 c -16.23,9.766 -36.45,21.931 -53.88,32.417" />
    <polygon
       style="fill:#000000;stroke:#000000"
       id="polygon287"
       points="1369.97,-267.326 1373.58,-261.328 1373.58,-261.328 1363.2,-259.172 " />
  </g>
  <polygon
     points="1536,-223 1536,-223 1536,-259 1694,-259 1694,-223 "
     id="polygon292"
     style="fill:#0000ff;stroke:#000000;fill-opacity:1"
     transform="translate(4,560)" />
  <text
     x="1619"
     y="322.60001"
     font-size="14.00"
     id="text294"
     style="font-size:14px;text-anchor:middle;font-family:'Times Roman,serif'">Prévisions de ventes</text>
  <g
     class="edge"
     id="edge29"
     transform="translate(4,560)">
    <title
       id="title297">etudeConc-&gt;prevVente</title>
    <path
       style="fill:none;stroke:#000000"
       inkscape:connector-curvature="0"
       id="path299"
       d="m 1655.65,-296.708 c -6.47,8.872 -14.37,19.691 -21.47,29.426" />
    <polygon
       style="fill:#000000;stroke:#000000"
       id="polygon301"
       points="1631.26,-269.223 1636.92,-265.096 1636.92,-265.096 1628.19,-259.082 " />
  </g>
  <g
     class="edge"
     id="edge31"
     transform="translate(4,560)">
    <title
       id="title304">prevVente-&gt;pic</title>
    <path
       style="fill:none;stroke:#000000"
       inkscape:connector-curvature="0"
       id="path306"
       d="m 1539.56,-222.992 c -45.09,10.764 -102.51,24.47 -149.25,35.627" />
    <polygon
       style="fill:#000000;stroke:#000000"
       id="polygon308"
       points="1389.42,-190.751 1391.05,-183.942 1391.05,-183.942 1380.51,-185.024 " />
  </g>
  <rect
     style="fill:#00ffff;fill-opacity:1;stroke:none;stroke-width:4.48000002000000030;stroke-miterlimit:4;stroke-opacity:1;stroke-dasharray:none;stroke-dashoffset:0"
     id="rect5064"
     width="26.102161"
     height="19.074657"
     x="126.53257"
     y="217.64441" />
  <rect
     style="fill:#ff0000;fill-opacity:1;stroke:none;stroke-width:4.48000002000000030;stroke-miterlimit:4;stroke-opacity:1;stroke-dasharray:none;stroke-dashoffset:0"
     id="rect5064-9"
     width="26.102161"
     height="19.074657"
     x="126.53257"
     y="254.51685" />
  <rect
     style="fill:#ffff00;fill-opacity:1;stroke:none;stroke-width:4.48000002000000030;stroke-miterlimit:4;stroke-opacity:1;stroke-dasharray:none;stroke-dashoffset:0"
     id="rect5064-9-3"
     width="26.102161"
     height="19.074657"
     x="126.53257"
     y="291.38928" />
  <rect
     style="fill:#ff8d00;fill-opacity:1;stroke:none;stroke-width:4.48000000000000043;stroke-miterlimit:4;stroke-opacity:1;stroke-dasharray:none;stroke-dashoffset:0"
     id="rect5064-9-3-9"
     width="26.102161"
     height="19.074657"
     x="126.53257"
     y="328.26172" />
  <rect
     style="fill:#001aff;fill-opacity:1;stroke:none;stroke-width:4.48000002000000030;stroke-miterlimit:4;stroke-opacity:1;stroke-dasharray:none;stroke-dashoffset:0"
     id="rect5064-9-3-9-4"
     width="26.102161"
     height="19.074657"
     x="126.53257"
     y="365.13419" />
  <rect
     style="fill:#ff00e3;fill-opacity:1;stroke:none;stroke-width:4.48000002000000030;stroke-miterlimit:4;stroke-opacity:1;stroke-dasharray:none;stroke-dashoffset:0"
     id="rect5064-9-3-9-4-6"
     width="26.102161"
     height="19.074657"
     x="126.53257"
     y="402.00662" />
  <text
     xml:space="preserve"
     style="font-size:10.39999962px;font-style:normal;font-variant:normal;font-weight:normal;font-stretch:normal;line-height:125%;letter-spacing:0px;word-spacing:0px;fill:#000000;fill-opacity:1;stroke:none;font-family:Nimbus Sans L;-inkscape-font-specification:Nimbus Sans L"
     x="161.84341"
     y="228.93417"
     id="text5170"
     sodipodi:linespacing="125%"><tspan
       sodipodi:role="line"
       id="tspan5172"
       x="161.84341"
       y="228.93417">Paul</tspan></text>
  <text
     xml:space="preserve"
     style="font-size:10.39999962px;font-style:normal;font-variant:normal;font-weight:normal;font-stretch:normal;line-height:125%;letter-spacing:0px;word-spacing:0px;fill:#000000;fill-opacity:1;stroke:none;font-family:Nimbus Sans L;-inkscape-font-specification:Nimbus Sans L"
     x="161.84341"
     y="264.66507"
     id="text5174"
     sodipodi:linespacing="125%"><tspan
       sodipodi:role="line"
       id="tspan5176"
       x="161.84341"
       y="264.66507">Étienne</tspan></text>
  <text
     xml:space="preserve"
     style="font-size:10.39999962px;font-style:normal;font-variant:normal;font-weight:normal;font-stretch:normal;line-height:125%;letter-spacing:0px;word-spacing:0px;fill:#000000;fill-opacity:1;stroke:none;font-family:Nimbus Sans L;-inkscape-font-specification:Nimbus Sans L"
     x="161.84341"
     y="300.39597"
     id="text5178"
     sodipodi:linespacing="125%"><tspan
       sodipodi:role="line"
       id="tspan5180"
       x="161.84341"
       y="300.39597">Yoann</tspan></text>
  <text
     xml:space="preserve"
     style="font-size:10.39999962px;font-style:normal;font-variant:normal;font-weight:normal;font-stretch:normal;line-height:125%;letter-spacing:0px;word-spacing:0px;fill:#000000;fill-opacity:1;stroke:none;font-family:Nimbus Sans L;-inkscape-font-specification:Nimbus Sans L"
     x="161.84341"
     y="336.12683"
     id="text5182"
     sodipodi:linespacing="125%"><tspan
       sodipodi:role="line"
       id="tspan5184"
       x="161.84341"
       y="336.12683">Martin</tspan></text>
  <text
     xml:space="preserve"
     style="font-size:10.39999962px;font-style:normal;font-variant:normal;font-weight:normal;font-stretch:normal;line-height:125%;letter-spacing:0px;word-spacing:0px;fill:#000000;fill-opacity:1;stroke:none;font-family:Nimbus Sans L;-inkscape-font-specification:Nimbus Sans L"
     x="161.84341"
     y="371.85773"
     id="text5186"
     sodipodi:linespacing="125%"><tspan
       sodipodi:role="line"
       id="tspan5188"
       x="161.84341"
       y="371.85773">Monica</tspan></text>
  <text
     xml:space="preserve"
     style="font-size:10.39999962px;font-style:normal;font-variant:normal;font-weight:normal;font-stretch:normal;line-height:125%;letter-spacing:0px;word-spacing:0px;fill:#000000;fill-opacity:1;stroke:none;font-family:Nimbus Sans L;-inkscape-font-specification:Nimbus Sans L"
     x="161.84341"
     y="407.58862"
     id="text5190"
     sodipodi:linespacing="125%"><tspan
       sodipodi:role="line"
       id="tspan5192"
       x="161.84341"
       y="407.58862">Max</tspan></text>
  <rect
     style="fill:#00ff00;fill-opacity:1;stroke:none"
     id="rect5064-9-3-9-4-6-5"
     width="26.102161"
     height="19.074657"
     x="126.08642"
     y="434.49207" />
  <text
     xml:space="preserve"
     style="font-size:10.39999962px;font-style:normal;font-variant:normal;font-weight:normal;font-stretch:normal;line-height:125%;letter-spacing:0px;word-spacing:0px;fill:#000000;fill-opacity:1;stroke:none;font-family:Nimbus Sans L;-inkscape-font-specification:Nimbus Sans L"
     x="161.84341"
     y="443.31952"
     id="text5212"
     sodipodi:linespacing="125%"><tspan
       sodipodi:role="line"
       id="tspan5214"
       x="161.84341"
       y="443.31952">Fait</tspan></text>
</svg>
