<?xml version="1.0" encoding="UTF-8" standalone="no"?>
<!DOCTYPE svg PUBLIC "-//W3C//DTD SVG 1.1//EN"
 "http://www.w3.org/Graphics/SVG/1.1/DTD/svg11.dtd">
<!-- Generated by graphviz version 2.26.3 (20100126.1600)
 -->
<!-- Title: tasks Pages: 1 -->
<svg width="2044pt" height="564pt"
 viewBox="0.00 0.00 2044.00 564.00" xmlns="http://www.w3.org/2000/svg" xmlns:xlink="http://www.w3.org/1999/xlink">
<g id="graph1" class="graph" transform="scale(1 1) rotate(0) translate(4 560)">
<title>tasks</title>
<polygon fill="white" stroke="white" points="-4,5 -4,-560 2041,-560 2041,5 -4,5"/>
<!-- nomFamilleProd -->
<g id="node1" class="node"><title>nomFamilleProd</title>
<polygon fill="none" stroke="black" points="-0.5,-445 -0.5,-481 268.5,-481 268.5,-445 -0.5,-445"/>
<text text-anchor="middle" x="134" y="-459.4" font-family="Times Roman,serif" font-size="14.00">Nomenclature familles de production</text>
</g>
<!-- nom -->
<g id="node2" class="node"><title>nom</title>
<polygon fill="none" stroke="black" points="569.5,-519 569.5,-555 682.5,-555 682.5,-519 569.5,-519"/>
<text text-anchor="middle" x="626" y="-533.4" font-family="Times Roman,serif" font-size="14.00">Nomenclature</text>
</g>
<!-- nom&#45;&gt;nomFamilleProd -->
<g id="edge10" class="edge"><title>nom&#45;&gt;nomFamilleProd</title>
<path fill="none" stroke="black" d="M569.081,-528.439C494.982,-517.294 363.249,-497.481 264.089,-482.566"/>
<polygon fill="black" stroke="black" points="264.401,-479.074 253.992,-481.048 263.36,-485.996 264.401,-479.074"/>
</g>
<!-- nouvMoyProd -->
<g id="node3" class="node"><title>nouvMoyProd</title>
<polygon fill="none" stroke="black" points="286,-445 286,-481 660,-481 660,-445 286,-445"/>
<text text-anchor="middle" x="473" y="-459.4" font-family="Times Roman,serif" font-size="14.00">Détermination des nouveaux moyens de production</text>
</g>
<!-- nom&#45;&gt;nouvMoyProd -->
<g id="edge2" class="edge"><title>nom&#45;&gt;nouvMoyProd</title>
<path fill="none" stroke="black" d="M588.572,-518.898C567.749,-508.826 541.646,-496.202 519.519,-485.499"/>
<polygon fill="black" stroke="black" points="520.833,-482.247 510.306,-481.044 517.785,-488.549 520.833,-482.247"/>
</g>
<!-- nomCom -->
<g id="node4" class="node"><title>nomCom</title>
<polygon fill="none" stroke="black" points="677.5,-445 677.5,-481 880.5,-481 880.5,-445 677.5,-445"/>
<text text-anchor="middle" x="779" y="-459.4" font-family="Times Roman,serif" font-size="14.00">Nomenclature commerciale</text>
</g>
<!-- nom&#45;&gt;nomCom -->
<g id="edge12" class="edge"><title>nom&#45;&gt;nomCom</title>
<path fill="none" stroke="black" d="M663.428,-518.898C684.251,-508.826 710.354,-496.202 732.481,-485.499"/>
<polygon fill="black" stroke="black" points="734.215,-488.549 741.694,-481.044 731.167,-482.247 734.215,-488.549"/>
</g>
<!-- listDenom -->
<g id="node20" class="node"><title>listDenom</title>
<polygon fill="none" stroke="black" points="898,-445 898,-481 1128,-481 1128,-445 898,-445"/>
<text text-anchor="middle" x="1013" y="-459.4" font-family="Times Roman,serif" font-size="14.00">Liste dénomination des articles</text>
</g>
<!-- nom&#45;&gt;listDenom -->
<g id="edge14" class="edge"><title>nom&#45;&gt;listDenom</title>
<path fill="none" stroke="black" d="M682.688,-526.161C741.84,-514.85 835.915,-496.861 908.565,-482.969"/>
<polygon fill="black" stroke="black" points="909.504,-486.353 918.668,-481.038 908.189,-479.478 909.504,-486.353"/>
</g>
<!-- capProd -->
<g id="node5" class="node"><title>capProd</title>
<polygon fill="none" stroke="black" points="764.5,-371 764.5,-407 939.5,-407 939.5,-371 764.5,-371"/>
<text text-anchor="middle" x="852" y="-385.4" font-family="Times Roman,serif" font-size="14.00">Capacité de production</text>
</g>
<!-- nouvMoyProd&#45;&gt;capProd -->
<g id="edge3" class="edge"><title>nouvMoyProd&#45;&gt;capProd</title>
<path fill="none" stroke="black" d="M565.229,-444.992C622.5,-433.81 696.034,-419.452 754.3,-408.076"/>
<polygon fill="black" stroke="black" points="755.109,-411.484 764.253,-406.133 753.768,-404.614 755.109,-411.484"/>
</g>
<!-- methApprod -->
<g id="node8" class="node"><title>methApprod</title>
<polygon fill="none" stroke="black" points="669.5,-297 669.5,-333 1034.5,-333 1034.5,-297 669.5,-297"/>
<text text-anchor="middle" x="852" y="-311.4" font-family="Times Roman,serif" font-size="14.00">Détermination des méthodes d&#39;approvisionnement</text>
</g>
<!-- capProd&#45;&gt;methApprod -->
<g id="edge4" class="edge"><title>capProd&#45;&gt;methApprod</title>
<path fill="none" stroke="black" d="M852,-370.708C852,-362.464 852,-352.538 852,-343.362"/>
<polygon fill="black" stroke="black" points="855.5,-343.082 852,-333.082 848.5,-343.082 855.5,-343.082"/>
</g>
<!-- fourn -->
<g id="node6" class="node"><title>fourn</title>
<polygon fill="none" stroke="black" points="1146,-445 1146,-481 1318,-481 1318,-445 1146,-445"/>
<text text-anchor="middle" x="1232" y="-459.4" font-family="Times Roman,serif" font-size="14.00">Choix des fournisseurs</text>
</g>
<!-- fourn&#45;&gt;capProd -->
<g id="edge35" class="edge"><title>fourn&#45;&gt;capProd</title>
<path fill="none" stroke="black" d="M1145.79,-445.732C1142.83,-445.146 1139.89,-444.568 1137,-444 1074.74,-431.767 1004.78,-418.262 949.755,-407.696"/>
<polygon fill="black" stroke="black" points="950.14,-404.206 939.66,-405.758 948.82,-411.08 950.14,-404.206"/>
</g>
<!-- log -->
<g id="node7" class="node"><title>log</title>
<polygon fill="none" stroke="black" points="1731.5,-371 1731.5,-407 2036.5,-407 2036.5,-371 1731.5,-371"/>
<text text-anchor="middle" x="1884" y="-385.4" font-family="Times Roman,serif" font-size="14.00">Determination des partenaires logistiques</text>
</g>
<!-- lieuProd -->
<g id="node21" class="node"><title>lieuProd</title>
<polygon fill="none" stroke="black" points="1766,-297 1766,-333 2002,-333 2002,-297 1766,-297"/>
<text text-anchor="middle" x="1884" y="-311.4" font-family="Times Roman,serif" font-size="14.00">Lieu de production, de stockage</text>
</g>
<!-- log&#45;&gt;lieuProd -->
<g id="edge16" class="edge"><title>log&#45;&gt;lieuProd</title>
<path fill="none" stroke="black" d="M1884,-370.708C1884,-362.464 1884,-352.538 1884,-343.362"/>
<polygon fill="black" stroke="black" points="1887.5,-343.082 1884,-333.082 1880.5,-343.082 1887.5,-343.082"/>
</g>
<!-- gamProd -->
<g id="node9" class="node"><title>gamProd</title>
<polygon fill="none" stroke="black" points="843.5,-223 843.5,-259 1148.5,-259 1148.5,-223 843.5,-223"/>
<text text-anchor="middle" x="996" y="-237.4" font-family="Times Roman,serif" font-size="14.00">Détermination des gammes de production</text>
</g>
<!-- methApprod&#45;&gt;gamProd -->
<g id="edge5" class="edge"><title>methApprod&#45;&gt;gamProd</title>
<path fill="none" stroke="black" d="M887.226,-296.898C906.665,-286.909 930.991,-274.407 951.706,-263.762"/>
<polygon fill="black" stroke="black" points="953.344,-266.856 960.638,-259.172 950.144,-260.63 953.344,-266.856"/>
</g>
<!-- pic -->
<g id="node10" class="node"><title>pic</title>
<polygon fill="none" stroke="black" points="1197,-149 1197,-185 1413,-185 1413,-149 1197,-149"/>
<text text-anchor="middle" x="1305" y="-163.4" font-family="Times Roman,serif" font-size="14.00">Plan industriel et commercial</text>
</g>
<!-- gamProd&#45;&gt;pic -->
<g id="edge6" class="edge"><title>gamProd&#45;&gt;pic</title>
<path fill="none" stroke="black" d="M1071.19,-222.992C1116.14,-212.228 1173.37,-198.522 1219.96,-187.365"/>
<polygon fill="black" stroke="black" points="1220.83,-190.757 1229.74,-185.024 1219.2,-183.95 1220.83,-190.757"/>
</g>
<!-- calcCharge -->
<g id="node11" class="node"><title>calcCharge</title>
<polygon fill="none" stroke="black" points="1217.5,-75 1217.5,-111 1392.5,-111 1392.5,-75 1217.5,-75"/>
<text text-anchor="middle" x="1305" y="-89.4" font-family="Times Roman,serif" font-size="14.00">Calcul de charge global</text>
</g>
<!-- pic&#45;&gt;calcCharge -->
<g id="edge7" class="edge"><title>pic&#45;&gt;calcCharge</title>
<path fill="none" stroke="black" d="M1305,-148.708C1305,-140.464 1305,-130.538 1305,-121.362"/>
<polygon fill="black" stroke="black" points="1308.5,-121.082 1305,-111.082 1301.5,-121.082 1308.5,-121.082"/>
</g>
<!-- chgtDimension -->
<g id="node12" class="node"><title>chgtDimension</title>
<polygon fill="none" stroke="black" points="1147.5,-1 1147.5,-37 1462.5,-37 1462.5,-1 1147.5,-1"/>
<text text-anchor="middle" x="1305" y="-15.4" font-family="Times Roman,serif" font-size="14.00">Changement de dimension de l&#39;entreprise ?</text>
</g>
<!-- calcCharge&#45;&gt;chgtDimension -->
<g id="edge8" class="edge"><title>calcCharge&#45;&gt;chgtDimension</title>
<path fill="none" stroke="black" d="M1305,-74.7079C1305,-66.4635 1305,-56.5376 1305,-47.3622"/>
<polygon fill="black" stroke="black" points="1308.5,-47.0817 1305,-37.0817 1301.5,-47.0818 1308.5,-47.0817"/>
</g>
<!-- cible -->
<g id="node13" class="node"><title>cible</title>
<polygon fill="none" stroke="black" points="1273,-371 1273,-407 1461,-407 1461,-371 1273,-371"/>
<text text-anchor="middle" x="1367" y="-385.4" font-family="Times Roman,serif" font-size="14.00">Cible visée par le produit</text>
</g>
<!-- cible&#45;&gt;methApprod -->
<g id="edge33" class="edge"><title>cible&#45;&gt;methApprod</title>
<path fill="none" stroke="black" d="M1272.84,-375.47C1192.97,-363.993 1077.38,-347.385 987.549,-334.477"/>
<polygon fill="black" stroke="black" points="987.954,-330.999 977.558,-333.041 986.958,-337.928 987.954,-330.999"/>
</g>
<!-- site -->
<g id="node14" class="node"><title>site</title>
<polygon fill="none" stroke="black" points="1051.5,-297 1051.5,-333 1218.5,-333 1218.5,-297 1051.5,-297"/>
<text text-anchor="middle" x="1135" y="-311.4" font-family="Times Roman,serif" font-size="14.00">Site Web e&#45;commerce</text>
</g>
<!-- cible&#45;&gt;site -->
<g id="edge20" class="edge"><title>cible&#45;&gt;site</title>
<path fill="none" stroke="black" d="M1310.54,-370.992C1277.56,-360.473 1235.77,-347.144 1201.24,-336.129"/>
<polygon fill="black" stroke="black" points="1202.3,-332.793 1191.71,-333.089 1200.17,-339.462 1202.3,-332.793"/>
</g>
<!-- package -->
<g id="node15" class="node"><title>package</title>
<polygon fill="none" stroke="black" points="1236,-297 1236,-333 1322,-333 1322,-297 1236,-297"/>
<text text-anchor="middle" x="1279" y="-311.4" font-family="Times Roman,serif" font-size="14.00">Packaging</text>
</g>
<!-- cible&#45;&gt;package -->
<g id="edge22" class="edge"><title>cible&#45;&gt;package</title>
<path fill="none" stroke="black" d="M1345.25,-370.708C1334.06,-361.299 1320.26,-349.699 1308.16,-339.525"/>
<polygon fill="black" stroke="black" points="1310.41,-336.839 1300.5,-333.082 1305.9,-342.197 1310.41,-336.839"/>
</g>
<!-- descDet -->
<g id="node17" class="node"><title>descDet</title>
<polygon fill="none" stroke="black" points="1339.5,-297 1339.5,-333 1572.5,-333 1572.5,-297 1339.5,-297"/>
<text text-anchor="middle" x="1456" y="-311.4" font-family="Times Roman,serif" font-size="14.00">Description détaillée du produit</text>
</g>
<!-- cible&#45;&gt;descDet -->
<g id="edge25" class="edge"><title>cible&#45;&gt;descDet</title>
<path fill="none" stroke="black" d="M1389,-370.708C1400.32,-361.299 1414.27,-349.699 1426.5,-339.525"/>
<polygon fill="black" stroke="black" points="1428.8,-342.166 1434.25,-333.082 1424.33,-336.784 1428.8,-342.166"/>
</g>
<!-- etudeConc -->
<g id="node18" class="node"><title>etudeConc</title>
<polygon fill="none" stroke="black" points="1590,-297 1590,-333 1748,-333 1748,-297 1590,-297"/>
<text text-anchor="middle" x="1669" y="-311.4" font-family="Times Roman,serif" font-size="14.00">Étude concurentielle</text>
</g>
<!-- cible&#45;&gt;etudeConc -->
<g id="edge28" class="edge"><title>cible&#45;&gt;etudeConc</title>
<path fill="none" stroke="black" d="M1440.49,-370.992C1484.33,-360.251 1540.12,-346.579 1585.6,-335.435"/>
<polygon fill="black" stroke="black" points="1586.56,-338.804 1595.44,-333.024 1584.9,-332.005 1586.56,-338.804"/>
</g>
<!-- cible&#45;&gt;lieuProd -->
<g id="edge18" class="edge"><title>cible&#45;&gt;lieuProd</title>
<path fill="none" stroke="black" d="M1461.2,-375.941C1537.82,-365.267 1649.03,-349.655 1755.72,-334.18"/>
<polygon fill="black" stroke="black" points="1756.31,-337.632 1765.7,-332.731 1755.3,-330.705 1756.31,-337.632"/>
</g>
<!-- mockups -->
<g id="node16" class="node"><title>mockups</title>
<polygon fill="none" stroke="black" points="1255,-223 1255,-259 1411,-259 1411,-223 1255,-223"/>
<text text-anchor="middle" x="1333" y="-237.4" font-family="Times Roman,serif" font-size="14.00">Vues prévisionnelles</text>
</g>
<!-- package&#45;&gt;mockups -->
<g id="edge23" class="edge"><title>package&#45;&gt;mockups</title>
<path fill="none" stroke="black" d="M1292.35,-296.708C1298.82,-287.836 1306.72,-277.017 1313.82,-267.282"/>
<polygon fill="black" stroke="black" points="1316.74,-269.223 1319.81,-259.082 1311.08,-265.096 1316.74,-269.223"/>
</g>
<!-- descDet&#45;&gt;mockups -->
<g id="edge26" class="edge"><title>descDet&#45;&gt;mockups</title>
<path fill="none" stroke="black" d="M1425.91,-296.898C1409.68,-287.132 1389.46,-274.967 1372.03,-264.481"/>
<polygon fill="black" stroke="black" points="1373.58,-261.328 1363.2,-259.172 1369.97,-267.326 1373.58,-261.328"/>
</g>
<!-- prevVente -->
<g id="node19" class="node"><title>prevVente</title>
<polygon fill="none" stroke="black" points="1536,-223 1536,-259 1694,-259 1694,-223 1536,-223"/>
<text text-anchor="middle" x="1615" y="-237.4" font-family="Times Roman,serif" font-size="14.00">Prévisions de ventes</text>
</g>
<!-- etudeConc&#45;&gt;prevVente -->
<g id="edge29" class="edge"><title>etudeConc&#45;&gt;prevVente</title>
<path fill="none" stroke="black" d="M1655.65,-296.708C1649.18,-287.836 1641.28,-277.017 1634.18,-267.282"/>
<polygon fill="black" stroke="black" points="1636.92,-265.096 1628.19,-259.082 1631.26,-269.223 1636.92,-265.096"/>
</g>
<!-- prevVente&#45;&gt;pic -->
<g id="edge31" class="edge"><title>prevVente&#45;&gt;pic</title>
<path fill="none" stroke="black" d="M1539.56,-222.992C1494.47,-212.228 1437.05,-198.522 1390.31,-187.365"/>
<polygon fill="black" stroke="black" points="1391.05,-183.942 1380.51,-185.024 1389.42,-190.751 1391.05,-183.942"/>
</g>
</g>
</svg>
